<?xml version="1.0" encoding="UTF-8" standalone="no"?>
<svg
   viewBox="0 0 1280 320"
   width="1280"
   height="320"
   role="img"
   aria-label="Nexum nectar — low-level Swarm primitives in Rust"
   font-family="'JetBrains Mono','IBM Plex Mono',ui-monospace,Menlo,Consolas,'Liberation Mono',monospace"
   version="1.1"
   id="svg12"
   xmlns="http://www.w3.org/2000/svg"
   xmlns:svg="http://www.w3.org/2000/svg">
  <defs
     id="defs12" />
  <rect
     width="1280"
     height="320"
     fill="#0a0b0a"
     id="rect1" />
  <g
     stroke="#5e7c4e"
     stroke-width="1"
     fill="none"
     id="g4">
    <path
       d="M24 24 L24 56 M24 24 L56 24"
       id="path1" />
    <path
       d="M1256 24 L1256 56 M1256 24 L1224 24"
       id="path2" />
    <path
       d="M24 296 L24 264 M24 296 L56 296"
       id="path3" />
    <path
       d="M1256 296 L1256 264 M1256 296 L1224 296"
       id="path4" />
  </g>
  <circle
     cx="74"
     cy="60"
     r="5"
     fill="#a8d68a"
     id="circle4" />
  <path
     d="M 93.296,65 V 53.32 h 2.192 l 3.392,9.712 Q 98.848,62.584 98.8,61.944 98.752,61.304 98.72,60.616 98.704,59.928 98.704,59.352 V 53.32 h 1.6 V 65 h -2.176 l -3.392,-9.712 q 0.032,0.432 0.064,1.056 0.048,0.608 0.08,1.28 0.032,0.672 0.032,1.248 V 65 Z m 13.00801,0 V 53.32 h 6.864 v 1.536 h -5.168 v 3.328 h 4.608 v 1.488 h -4.608 v 3.792 h 5.168 V 65 Z m 11.84,0 3.296,-5.952 -3.104,-5.728 h 1.952 l 1.632,3.184 q 0.144,0.304 0.288,0.608 0.144,0.304 0.224,0.464 0.064,-0.16 0.192,-0.464 0.144,-0.304 0.304,-0.608 l 1.664,-3.184 h 1.872 l -3.104,5.664 3.296,6.016 h -1.952 l -1.808,-3.456 q -0.16,-0.304 -0.304,-0.608 -0.144,-0.32 -0.224,-0.496 -0.064,0.176 -0.208,0.496 -0.144,0.304 -0.288,0.592 l -1.84,3.472 z m 17.05601,0.16 q -1.68,0 -2.592,-0.912 -0.912,-0.928 -0.912,-2.512 V 53.32 h 1.728 v 8.4 q 0,0.896 0.448,1.408 0.448,0.512 1.328,0.512 0.88,0 1.328,-0.512 0.448,-0.512 0.448,-1.408 v -8.4 h 1.728 v 8.416 q 0,1.6 -0.912,2.512 -0.912,0.912 -2.592,0.912 z m 9.008,-0.16 V 53.32 h 2.368 l 1.392,5.04 1.44,-5.04 h 2.384 V 65 h -1.632 v -5.216 q 0,-0.896 0.032,-1.936 0.048,-1.056 0.112,-2.08 0.064,-1.024 0.144,-1.856 l -1.76,5.952 h -1.456 l -1.696,-5.808 q 0.144,1.136 0.224,2.608 0.08,1.472 0.08,3.12 V 65 Z"
     id="text4"
     style="font-weight:600;font-size:16px;letter-spacing:3.2;fill:#d6d6cf"
     aria-label="NEXUM" />
  <line
     x1="160"
     y1="48"
     x2="160"
     y2="72"
     stroke="#1f221f"
     stroke-width="1"
     id="line4" />
  <path
     d="m 173.288,65 v -7.7 h 1.26 v 1.47 h 0.014 q 0.098,-0.77 0.63,-1.19 0.532,-0.42 1.414,-0.42 1.162,0 1.848,0.714 0.686,0.714 0.686,1.946 V 65 h -1.26 v -4.956 q 0,-0.882 -0.448,-1.344 -0.434,-0.476 -1.19,-0.476 -0.784,0 -1.246,0.49 -0.448,0.49 -0.448,1.386 V 65 Z m 9.41201,0 2.73,-3.962 -2.562,-3.738 h 1.484 l 1.526,2.38 q 0.098,0.154 0.182,0.336 0.098,0.182 0.154,0.294 0.042,-0.112 0.126,-0.294 0.098,-0.182 0.196,-0.336 l 1.526,-2.38 h 1.484 l -2.562,3.752 2.716,3.948 h -1.484 l -1.652,-2.52 q -0.098,-0.154 -0.196,-0.35 -0.084,-0.21 -0.154,-0.336 -0.056,0.126 -0.168,0.336 -0.098,0.196 -0.21,0.35 l -1.652,2.52 z m 10.14,0 v -7.7 h 1.092 v 1.022 h 0.028 q 0.07,-0.518 0.406,-0.84 0.35,-0.322 0.882,-0.322 0.504,0 0.854,0.294 0.35,0.294 0.504,0.798 h 0.014 q 0.098,-0.504 0.434,-0.798 0.35,-0.294 0.882,-0.294 0.742,0 1.176,0.56 0.448,0.546 0.448,1.428 V 65 h -1.176 v -5.866 q 0,-0.462 -0.224,-0.728 -0.224,-0.28 -0.616,-0.28 -0.378,0 -0.602,0.266 -0.224,0.266 -0.224,0.728 V 65 h -1.036 v -5.866 q 0,-0.462 -0.224,-0.728 -0.224,-0.28 -0.602,-0.28 -0.392,0 -0.616,0.266 -0.224,0.266 -0.224,0.728 V 65 Z m 11.12001,-4.06 v -1.12 h 4.48 v 1.12 z m 9.608,4.06 v -7.7 h 1.26 v 1.47 h 0.028 q 0.098,-0.742 0.63,-1.176 0.532,-0.434 1.428,-0.434 1.204,0 1.848,0.728 0.658,0.714 0.658,2.044 v 0.658 h -1.26 v -0.658 q 0,-1.68 -1.638,-1.68 -0.826,0 -1.26,0.476 -0.434,0.476 -0.434,1.372 V 65 Z m 12.32401,0.112 q -1.288,0 -2.002,-0.574 -0.7,-0.588 -0.7,-1.652 h 1.26 q 0,0.532 0.378,0.84 0.378,0.294 1.064,0.294 h 0.616 q 0.7,0 1.078,-0.308 0.392,-0.308 0.392,-0.868 0,-0.994 -0.91,-1.12 l -2.128,-0.308 q -0.784,-0.112 -1.218,-0.644 -0.434,-0.546 -0.434,-1.428 0,-1.008 0.686,-1.582 0.7,-0.574 1.918,-0.574 h 0.616 q 1.12,0 1.82,0.56 0.714,0.546 0.77,1.442 h -1.274 q -0.028,-0.406 -0.392,-0.672 -0.35,-0.266 -0.924,-0.266 h -0.616 q -0.644,0 -1.008,0.294 -0.364,0.294 -0.364,0.798 0,0.812 0.742,0.924 l 1.988,0.28 q 1.96,0.28 1.96,2.296 0,1.078 -0.714,1.68 -0.7,0.588 -1.988,0.588 z m 17.15801,1.428 4.97,-13.16 h 1.33 l -4.97,13.16 z M 263.28805,65 v -7.7 h 1.26 v 1.47 h 0.014 q 0.098,-0.77 0.63,-1.19 0.532,-0.42 1.414,-0.42 1.162,0 1.848,0.714 0.686,0.714 0.686,1.946 V 65 h -1.26 v -4.956 q 0,-0.882 -0.448,-1.344 -0.434,-0.476 -1.19,-0.476 -0.784,0 -1.246,0.49 -0.448,0.49 -0.448,1.386 V 65 Z m 12.912,0.14 q -1.358,0 -2.198,-0.812 -0.826,-0.826 -0.826,-2.268 v -1.82 q 0,-1.442 0.826,-2.254 0.84,-0.826 2.198,-0.826 0.91,0 1.582,0.364 0.686,0.364 1.064,1.022 0.378,0.658 0.378,1.554 v 1.372 h -4.816 V 62.2 q 0,0.854 0.49,1.358 0.49,0.49 1.302,0.49 0.7,0 1.148,-0.266 0.462,-0.28 0.56,-0.742 h 1.26 q -0.126,0.966 -0.938,1.54 -0.812,0.56 -2.03,0.56 z m -1.792,-4.648 h 3.584 V 60.1 q 0,-0.91 -0.476,-1.4 -0.462,-0.504 -1.316,-0.504 -0.854,0 -1.33,0.504 -0.462,0.49 -0.462,1.4 z m 11.90401,4.648 q -1.4,0 -2.24,-0.784 -0.84,-0.784 -0.84,-2.156 v -2.1 q 0,-1.372 0.84,-2.156 0.84,-0.784 2.24,-0.784 1.33,0 2.142,0.714 0.826,0.714 0.868,1.946 h -1.26 q -0.042,-0.742 -0.504,-1.134 -0.462,-0.406 -1.246,-0.406 -0.826,0 -1.33,0.476 -0.49,0.462 -0.49,1.33 V 62.2 q 0,0.868 0.49,1.344 0.504,0.476 1.33,0.476 0.784,0 1.246,-0.406 0.462,-0.406 0.504,-1.134 h 1.26 q -0.042,1.232 -0.868,1.946 -0.812,0.714 -2.142,0.714 z m 10.658,-0.14 q -0.952,0 -1.526,-0.546 -0.574,-0.56 -0.574,-1.484 v -4.522 h -2.212 V 57.3 h 2.212 v -2.17 h 1.26 v 2.17 h 3.15 v 1.148 h -3.15 v 4.522 q 0,0.392 0.224,0.644 0.238,0.238 0.616,0.238 h 2.24 V 65 Z m 8.55802,0.14 q -1.19,0 -1.89,-0.658 -0.7,-0.672 -0.7,-1.75 0,-0.714 0.322,-1.246 0.322,-0.532 0.896,-0.826 0.574,-0.308 1.316,-0.308 h 2.38 V 59.75 q 0,-1.498 -1.638,-1.498 -0.728,0 -1.176,0.266 -0.448,0.266 -0.476,0.742 h -1.26 q 0.07,-0.91 0.84,-1.498 0.784,-0.602 2.072,-0.602 1.4,0 2.142,0.672 0.756,0.672 0.756,1.876 V 65 h -1.246 v -1.4 h -0.028 q -0.112,0.714 -0.714,1.134 -0.602,0.406 -1.596,0.406 z m 0.308,-1.064 q 0.924,0 1.47,-0.448 0.546,-0.448 0.546,-1.218 v -1.078 h -2.24 q -0.616,0 -1.008,0.378 -0.378,0.364 -0.378,0.98 0,0.644 0.42,1.022 0.434,0.364 1.19,0.364 z m 7.732,0.924 v -7.7 h 1.26 v 1.47 h 0.028 q 0.098,-0.742 0.63,-1.176 0.532,-0.434 1.428,-0.434 1.204,0 1.848,0.728 0.658,0.714 0.658,2.044 v 0.658 h -1.26 v -0.658 q 0,-1.68 -1.638,-1.68 -0.826,0 -1.26,0.476 -0.434,0.476 -0.434,1.372 V 65 Z"
     id="text5"
     style="font-size:14px;letter-spacing:1.6;fill:#a8d68a"
     aria-label="nxm-rs / nectar" />
  <path
     d="m 77.952,142.13 q -1.378,0 -2.197,-0.728 -0.819,-0.728 -0.819,-2.002 h 1.17 q 0,0.793 0.507,1.248 0.507,0.442 1.339,0.442 0.806,0 1.287,-0.468 0.481,-0.468 0.481,-1.222 0,-0.572 -0.312,-0.988 -0.299,-0.429 -0.871,-0.585 l -1.443,-0.403 q -0.897,-0.26 -1.417,-0.923 -0.507,-0.676 -0.507,-1.586 0,-0.754 0.338,-1.326 0.338,-0.572 0.949,-0.884 0.611,-0.325 1.404,-0.325 0.806,0 1.417,0.325 0.624,0.312 0.975,0.884 0.351,0.559 0.351,1.3 h -1.17 q 0,-0.65 -0.442,-1.053 -0.442,-0.416 -1.131,-0.416 -0.689,0 -1.118,0.416 -0.429,0.403 -0.429,1.053 0,0.52 0.273,0.897 0.286,0.364 0.793,0.507 l 1.482,0.416 q 0.949,0.26 1.469,0.988 0.533,0.715 0.533,1.703 0,1.248 -0.793,1.989 -0.793,0.741 -2.119,0.741 z m 7.639005,-0.13 -1.131,-9.49 h 1.079 l 0.741,7.02 q 0.052,0.429 0.078,0.897 0.026,0.455 0.039,0.728 0.026,-0.273 0.065,-0.728 0.052,-0.468 0.104,-0.897 l 0.936,-7.02 h 1.261 l 0.858,7.02 q 0.052,0.429 0.104,0.897 0.052,0.455 0.078,0.728 0.026,-0.273 0.052,-0.728 0.039,-0.468 0.091,-0.897 l 0.767,-7.02 h 1.027 l -1.157,9.49 h -1.469 l -0.858,-7.15 q -0.052,-0.442 -0.078,-0.858 -0.026,-0.429 -0.052,-0.663 -0.026,0.234 -0.052,0.663 -0.026,0.416 -0.091,0.858 l -0.923,7.15 z m 9.459004,0 2.47,-9.49 h 1.573 l 2.457001,9.49 h -1.183 l -0.624001,-2.522 h -2.873 l -0.624,2.522 z m 2.054,-3.51 h 2.392 l -0.728,-2.925 q -0.208,-0.832 -0.325,-1.391 -0.117,-0.559 -0.143,-0.728 -0.026,0.169 -0.143,0.728 -0.117,0.559 -0.325,1.378 z m 8.705011,3.51 v -9.49 h 2.925 q 0.845,0 1.482,0.351 0.637,0.338 0.988,0.949 0.351,0.611 0.351,1.43 0,0.962 -0.494,1.651 -0.494,0.689 -1.313,0.962 l 1.937,4.147 h -1.287 l -1.859,-4.03 h -1.573 V 142 Z m 1.157,-5.083 h 1.768 q 0.728,0 1.17,-0.455 0.442,-0.468 0.442,-1.222 0,-0.767 -0.442,-1.222 -0.442,-0.455 -1.17,-0.455 h -1.768 z m 8.77,5.083 v -9.49 h 1.729 l 1.209,4.108 1.261,-4.108 h 1.729 V 142 h -1.131 v -4.485 q 0,-0.637 0.013,-1.456 0.026,-0.832 0.065,-1.677 0.039,-0.845 0.091,-1.521 l -1.534,4.901 h -1.014 l -1.469,-4.784 q 0.104,0.962 0.143,2.106 0.039,1.144 0.039,2.431 V 142 Z m 20.66001,0 v -9.49 h 3.055 q 1.326,0 2.106,0.767 0.793,0.754 0.793,2.028 0,1.274 -0.793,2.041 -0.78,0.754 -2.106,0.754 h -1.885 v 3.9 z m 1.17,-4.953 h 1.885 q 0.767,0 1.222,-0.468 0.468,-0.481 0.468,-1.274 0,-0.806 -0.468,-1.274 -0.455,-0.468 -1.222,-0.468 h -1.885 z m 9.043,4.953 v -9.49 h 2.925 q 0.845,0 1.482,0.351 0.637,0.338 0.988,0.949 0.351,0.611 0.351,1.43 0,0.962 -0.494,1.651 -0.494,0.689 -1.313,0.962 l 1.937,4.147 h -1.287 l -1.859,-4.03 h -1.573 V 142 Z m 1.157,-5.083 h 1.768 q 0.728,0 1.17,-0.455 0.442,-0.468 0.442,-1.222 0,-0.767 -0.442,-1.222 -0.442,-0.455 -1.17,-0.455 h -1.768 z m 9.19901,5.083 v -1.066 h 1.937 v -7.358 h -1.937 v -1.066 h 5.07 v 1.066 h -1.937 v 7.358 h 1.937 V 142 Z m 9.77101,0 v -9.49 h 1.729 l 1.209,4.108 1.261,-4.108 h 1.729 V 142 h -1.131 v -4.485 q 0,-0.637 0.013,-1.456 0.026,-0.832 0.065,-1.677 0.039,-0.845 0.091,-1.521 l -1.534,4.901 h -1.014 l -1.469,-4.784 q 0.104,0.962 0.143,2.106 0.039,1.144 0.039,2.431 V 142 Z m 10.629,0 v -1.066 h 1.937 v -7.358 h -1.937 v -1.066 h 5.07 v 1.066 h -1.937 v 7.358 h 1.937 V 142 Z m 12.15001,0 v -8.424 h -2.6 v -1.066 h 6.37 v 1.066 h -2.6 V 142 Z m 8.25,0 v -1.066 h 1.937 v -7.358 h -1.937 v -1.066 h 5.07 v 1.066 h -1.937 v 7.358 h 1.937 V 142 Z m 11.92901,0 -2.444,-9.49 h 1.196 l 1.625,6.461 q 0.169,0.676 0.273,1.248 0.117,0.572 0.169,0.871 0.052,-0.299 0.169,-0.871 0.13,-0.585 0.299,-1.261 l 1.56,-6.448 h 1.209 l -2.457,9.49 z m 8.40599,0 v -9.49 h 5.46 v 1.066 h -4.303 v 2.938 h 3.848 v 1.04 h -3.848 v 3.38 h 4.303 V 142 Z m 12.85202,0.13 q -1.378,0 -2.197,-0.728 -0.819,-0.728 -0.819,-2.002 h 1.17 q 0,0.793 0.507,1.248 0.507,0.442 1.339,0.442 0.806,0 1.287,-0.468 0.481,-0.468 0.481,-1.222 0,-0.572 -0.312,-0.988 -0.299,-0.429 -0.871,-0.585 l -1.443,-0.403 q -0.897,-0.26 -1.417,-0.923 -0.507,-0.676 -0.507,-1.586 0,-0.754 0.338,-1.326 0.338,-0.572 0.949,-0.884 0.611,-0.325 1.404,-0.325 0.806,0 1.417,0.325 0.624,0.312 0.975,0.884 0.351,0.559 0.351,1.3 h -1.17 q 0,-0.65 -0.442,-1.053 -0.442,-0.416 -1.131,-0.416 -0.689,0 -1.118,0.416 -0.429,0.403 -0.429,1.053 0,0.52 0.273,0.897 0.286,0.364 0.793,0.507 l 1.482,0.416 q 0.949,0.26 1.469,0.988 0.533,0.715 0.533,1.703 0,1.248 -0.793,1.989 -0.793,0.741 -2.119,0.741 z m 20.34801,-3.51 q -0.481,0 -0.78,-0.286 -0.286,-0.286 -0.286,-0.741 0,-0.481 0.286,-0.78 0.299,-0.299 0.78,-0.299 0.481,0 0.767,0.299 0.299,0.299 0.299,0.78 0,0.455 -0.299,0.741 -0.286,0.286 -0.767,0.286 z m 17.709,3.38 v -9.49 h 2.925 q 0.845,0 1.482,0.351 0.637,0.338 0.988,0.949 0.351,0.611 0.351,1.43 0,0.962 -0.494,1.651 -0.494,0.689 -1.313,0.962 l 1.937,4.147 h -1.287 l -1.859,-4.03 h -1.573 V 142 Z m 1.157,-5.083 h 1.768 q 0.728,0 1.17,-0.455 0.442,-0.468 0.442,-1.222 0,-0.767 -0.442,-1.222 -0.442,-0.455 -1.17,-0.455 h -1.768 z m 11.73402,5.213 q -1.326,0 -2.028,-0.728 -0.702,-0.741 -0.702,-2.002 v -6.89 h 1.17 v 6.89 q 0,0.78 0.377,1.235 0.39,0.455 1.183,0.455 0.78,0 1.17,-0.455 0.39,-0.455 0.39,-1.235 v -6.89 h 1.17 v 6.89 q 0,1.274 -0.702,2.002 -0.689,0.728 -2.028,0.728 z m 10.25199,0 q -1.378,0 -2.197,-0.728 -0.819,-0.728 -0.819,-2.002 h 1.17 q 0,0.793 0.507,1.248 0.507,0.442 1.339,0.442 0.806,0 1.287,-0.468 0.481,-0.468 0.481,-1.222 0,-0.572 -0.312,-0.988 -0.299,-0.429 -0.871,-0.585 l -1.443,-0.403 q -0.897,-0.26 -1.417,-0.923 -0.507,-0.676 -0.507,-1.586 0,-0.754 0.338,-1.326 0.338,-0.572 0.949,-0.884 0.611,-0.325 1.404,-0.325 0.806,0 1.417,0.325 0.624,0.312 0.975,0.884 0.351,0.559 0.351,1.3 h -1.17 q 0,-0.65 -0.442,-1.053 -0.442,-0.416 -1.131,-0.416 -0.689,0 -1.118,0.416 -0.429,0.403 -0.429,1.053 0,0.52 0.273,0.897 0.286,0.364 0.793,0.507 l 1.482,0.416 q 0.949,0.26 1.469,0.988 0.533,0.715 0.533,1.703 0,1.248 -0.793,1.989 -0.793,0.741 -2.119,0.741 z m 9.56302,-0.13 v -8.424 h -2.6 v -1.066 h 6.37 v 1.066 h -2.6 V 142 Z m 21.08901,0.13 q -1.3,0 -2.054,-0.728 -0.754,-0.728 -0.754,-2.002 v -4.29 q 0,-1.274 0.754,-2.002 0.754,-0.728 2.054,-0.728 1.274,0 2.028,0.741 0.754,0.728 0.754,1.989 h -1.17 q 0,-0.806 -0.429,-1.235 -0.416,-0.442 -1.183,-0.442 -0.767,0 -1.209,0.442 -0.429,0.429 -0.429,1.235 v 4.29 q 0,0.806 0.429,1.248 0.442,0.429 1.209,0.429 0.767,0 1.183,-0.429 0.429,-0.442 0.429,-1.248 h 1.17 q 0,1.261 -0.754,2.002 -0.754,0.728 -2.028,0.728 z m 7.40499,-0.13 v -9.49 h 2.925 q 0.845,0 1.482,0.351 0.637,0.338 0.988,0.949 0.351,0.611 0.351,1.43 0,0.962 -0.494,1.651 -0.494,0.689 -1.313,0.962 l 1.937,4.147 h -1.287 l -1.859,-4.03 h -1.573 V 142 Z m 1.157,-5.083 h 1.768 q 0.728,0 1.17,-0.455 0.442,-0.468 0.442,-1.222 0,-0.767 -0.442,-1.222 -0.442,-0.455 -1.17,-0.455 h -1.768 z m 8.48401,5.083 2.47,-9.49 h 1.573 l 2.457,9.49 h -1.183 l -0.624,-2.522 h -2.873 l -0.624,2.522 z m 2.054,-3.51 h 2.392 l -0.728,-2.925 q -0.208,-0.832 -0.325,-1.391 -0.117,-0.559 -0.143,-0.728 -0.026,0.169 -0.143,0.728 -0.117,0.559 -0.325,1.378 z m 10.81102,3.51 v -8.424 h -2.6 v -1.066 h 6.37 v 1.066 h -2.6 V 142 Z m 8.18498,0 v -9.49 h 5.46 v 1.066 h -4.303 v 2.938 h 3.848 v 1.04 h -3.848 v 3.38 h 4.303 V 142 Z m 12.85201,0.13 q -1.378,0 -2.197,-0.728 -0.819,-0.728 -0.819,-2.002 h 1.17 q 0,0.793 0.507,1.248 0.507,0.442 1.339,0.442 0.806,0 1.287,-0.468 0.481,-0.468 0.481,-1.222 0,-0.572 -0.312,-0.988 -0.299,-0.429 -0.871,-0.585 l -1.443,-0.403 q -0.897,-0.26 -1.417,-0.923 -0.507,-0.676 -0.507,-1.586 0,-0.754 0.338,-1.326 0.338,-0.572 0.949,-0.884 0.611,-0.325 1.404,-0.325 0.806,0 1.417,0.325 0.624,0.312 0.975,0.884 0.351,0.559 0.351,1.3 h -1.17 q 0,-0.65 -0.442,-1.053 -0.442,-0.416 -1.131,-0.416 -0.689,0 -1.118,0.416 -0.429,0.403 -0.429,1.053 0,0.52 0.273,0.897 0.286,0.364 0.793,0.507 l 1.482,0.416 q 0.949,0.26 1.469,0.988 0.533,0.715 0.533,1.703 0,1.248 -0.793,1.989 -0.793,0.741 -2.119,0.741 z"
     id="text6"
     style="font-size:13px;letter-spacing:2.4;fill:#a8d68a"
     aria-label="SWARM PRIMITIVES · RUST CRATES" />
  <path
     d="m 88.784,200.48 q -4.848,0 -7.728,-2.688 -2.832,-2.736 -2.832,-7.488 v -15.696 q 0,-4.704 2.832,-7.392 2.88,-2.736 7.728,-2.736 4.8,0 7.632,2.736 2.88,2.736 2.88,7.392 h -4.752 q 0,-2.832 -1.536,-4.368 -1.536,-1.536 -4.224,-1.536 -2.736,0 -4.272,1.536 -1.536,1.536 -1.536,4.368 v 15.696 q 0,2.88 1.536,4.416 1.536,1.536 4.272,1.536 2.688,0 4.224,-1.536 1.536,-1.536 1.536,-4.416 h 4.752 q 0,4.704 -2.88,7.44 -2.832,2.736 -7.632,2.736 z M 105.62402,200 v -35.04 h 4.752 v 8.64 l -0.048,5.04 h 0.048 q 0.336,-2.592 2.16,-4.032 1.872,-1.488 4.896,-1.488 3.936,0 6.288,2.496 2.352,2.496 2.352,6.72 V 200 h -4.752 v -16.944 q 0,-2.832 -1.44,-4.368 -1.44,-1.536 -3.936,-1.536 -2.592,0 -4.08,1.632 -1.488,1.584 -1.488,4.464 V 200 Z m 37.52802,0.48 q -4.656,0 -7.44,-2.736 -2.784,-2.736 -2.784,-7.44 V 173.6 h 4.752 v 16.704 q 0,2.784 1.44,4.416 1.488,1.584 4.032,1.584 2.592,0 4.08,-1.584 1.488,-1.632 1.488,-4.416 V 173.6 h 4.752 v 16.704 q 0,4.704 -2.832,7.44 -2.784,2.736 -7.488,2.736 z M 160.42406,200 v -26.4 h 4.704 v 5.04 h 0.048 q 0.336,-2.592 2.16,-4.032 1.872,-1.488 4.896,-1.488 3.936,0 6.288,2.496 2.352,2.496 2.352,6.72 V 200 h -4.752 v -16.896 q 0,-2.88 -1.44,-4.416 -1.44,-1.536 -3.936,-1.536 -2.592,0 -4.08,1.632 -1.488,1.584 -1.488,4.464 V 200 Z m 27.64001,0 v -35.04 h 4.752 v 19.392 h 4.848 l 7.104,-10.752 h 5.376 l -8.304,12.624 8.736,13.776 h -5.472 l -7.392,-11.568 h -4.896 V 200 Z m 36.28002,0.384 q -4.512,0 -7.008,-2.016 -2.496,-2.016 -2.496,-5.664 h 4.704 q 0,1.728 1.248,2.736 1.296,0.96 3.552,0.96 h 2.112 q 2.352,0 3.6,-1.008 1.296,-1.008 1.296,-2.832 0,-3.216 -3.168,-3.6 l -7.104,-1.008 q -2.832,-0.432 -4.368,-2.304 -1.536,-1.92 -1.536,-4.944 0,-3.552 2.4,-5.52 2.4,-1.968 6.72,-1.968 h 2.112 q 4.032,0 6.528,1.92 2.496,1.92 2.64,5.088 h -4.8 q -0.096,-1.344 -1.248,-2.208 -1.152,-0.912 -3.12,-0.912 h -2.112 q -2.16,0 -3.36,0.96 -1.152,0.96 -1.152,2.592 0,2.64 2.64,2.976 l 6.672,0.96 q 6.864,0.912 6.864,7.968 0,3.744 -2.496,5.808 -2.448,2.016 -7.008,2.016 z m 28.45603,0.096 q -1.824,0 -2.976,-1.104 -1.104,-1.104 -1.104,-2.832 0,-1.824 1.104,-2.976 1.152,-1.152 2.976,-1.152 1.824,0 2.928,1.152 1.152,1.152 1.152,2.976 0,1.728 -1.152,2.832 -1.104,1.104 -2.928,1.104 z m 54.99203,0 q -5.184,0 -8.256,-2.688 -3.072,-2.736 -3.072,-7.488 h 4.752 q 0,2.784 1.776,4.368 1.776,1.584 4.8,1.584 2.88,0 4.56,-1.584 1.728,-1.632 1.728,-4.32 0,-2.016 -1.104,-3.504 -1.104,-1.536 -3.12,-2.064 l -5.184,-1.392 q -3.408,-0.96 -5.424,-3.456 -1.968,-2.544 -1.968,-6 0,-2.832 1.248,-4.944 1.296,-2.16 3.6,-3.312 2.304,-1.2 5.328,-1.2 3.072,0 5.376,1.2 2.352,1.152 3.648,3.264 1.296,2.112 1.296,4.896 h -4.704 q 0,-2.304 -1.584,-3.744 -1.536,-1.44 -4.032,-1.44 -2.496,0 -4.032,1.44 -1.488,1.44 -1.488,3.744 0,1.872 1.008,3.168 1.008,1.248 2.832,1.776 l 5.328,1.44 q 3.6,0.96 5.616,3.696 2.016,2.688 2.016,6.432 0,3.072 -1.344,5.376 -1.344,2.256 -3.84,3.504 -2.448,1.248 -5.76,1.248 z M 337.64016,200 q -3.408,0 -5.424,-1.968 -1.968,-1.968 -1.968,-5.232 v -14.88 h -7.536 v -4.32 h 7.536 v -7.44 h 4.752 v 7.44 h 10.704 v 4.32 h -10.704 v 14.832 q 0,1.296 0.72,2.112 0.768,0.816 2.016,0.816 h 7.728 V 200 Z m 22.31202,0.48 q -4.08,0 -6.48,-2.256 -2.352,-2.304 -2.352,-6 0,-3.696 2.448,-5.952 2.496,-2.256 6.528,-2.256 h 7.728 V 182 q 0,-4.848 -5.376,-4.848 -2.4,0 -3.888,0.912 -1.44,0.864 -1.536,2.448 h -4.704 q 0.24,-3.216 2.928,-5.28 2.688,-2.112 7.2,-2.112 4.848,0 7.488,2.304 2.64,2.304 2.64,6.48 V 200 h -4.656 v -4.848 h -0.096 q -0.336,2.448 -2.448,3.888 -2.064,1.44 -5.424,1.44 z m 1.248,-3.984 q 3.024,0 4.8,-1.44 1.824,-1.488 1.824,-4.032 v -3.504 h -7.296 q -2.064,0 -3.36,1.248 -1.248,1.2 -1.248,3.216 0,2.064 1.392,3.312 1.392,1.2 3.888,1.2 z M 378.13621,200 v -26.4 h 4.032 v 3.6 h 0.144 q 0.192,-1.824 1.344,-2.928 1.2,-1.152 3.024,-1.152 1.776,0 2.976,1.056 1.2,1.056 1.728,2.832 v 0 q 0.288,-1.824 1.488,-2.832 1.2,-1.056 3.024,-1.056 2.496,0 4.032,1.92 1.536,1.872 1.536,4.896 V 200 h -4.32 v -20.016 q 0,-1.488 -0.768,-2.352 -0.72,-0.912 -1.968,-0.912 -1.248,0 -1.968,0.864 -0.72,0.864 -0.72,2.4 V 200 h -3.84 v -20.016 q 0,-1.488 -0.72,-2.352 -0.72,-0.912 -1.968,-0.912 -1.248,0 -2.016,0.864 -0.72,0.864 -0.72,2.4 V 200 Z m 28.88802,8.64 V 173.6 h 4.704 v 5.088 h 0.048 q 0.384,-2.592 2.304,-4.08 1.92,-1.488 4.896,-1.488 3.936,0 6.288,2.688 2.352,2.64 2.352,7.2 v 7.536 q 0,4.608 -2.352,7.296 -2.352,2.64 -6.288,2.64 -2.928,0 -4.848,-1.488 -1.92,-1.488 -2.352,-4.08 h -0.096 l 0.096,6.096 v 7.632 z m 10.272,-12.288 q 2.64,0 4.08,-1.344 1.488,-1.392 1.488,-4.464 v -7.488 q 0,-3.072 -1.488,-4.416 -1.44,-1.392 -4.08,-1.392 -2.544,0 -4.032,1.584 -1.488,1.584 -1.488,4.464 v 7.008 q 0,2.88 1.488,4.464 1.488,1.584 4.032,1.584 z m 26.248,4.032 q -4.512,0 -7.008,-2.016 -2.496,-2.016 -2.496,-5.664 h 4.704 q 0,1.728 1.248,2.736 1.296,0.96 3.552,0.96 h 2.112 q 2.352,0 3.6,-1.008 1.296,-1.008 1.296,-2.832 0,-3.216 -3.168,-3.6 l -7.104,-1.008 q -2.832,-0.432 -4.368,-2.304 -1.536,-1.92 -1.536,-4.944 0,-3.552 2.4,-5.52 2.4,-1.968 6.72,-1.968 h 2.112 q 4.032,0 6.528,1.92 2.496,1.92 2.64,5.088 h -4.8 q -0.096,-1.344 -1.248,-2.208 -1.152,-0.912 -3.12,-0.912 h -2.112 q -2.16,0 -3.36,0.96 -1.152,0.96 -1.152,2.592 0,2.64 2.64,2.976 l 6.672,0.96 q 6.864,0.912 6.864,7.968 0,3.744 -2.496,5.808 -2.448,2.016 -7.008,2.016 z m 28.45602,0.096 q -1.824,0 -2.976,-1.104 -1.104,-1.104 -1.104,-2.832 0,-1.824 1.104,-2.976 1.152,-1.152 2.976,-1.152 1.824,0 2.928,1.152 1.152,1.152 1.152,2.976 0,1.728 -1.152,2.832 -1.104,1.104 -2.928,1.104 z"
     id="text7"
     style="font-weight:500;font-size:48px;letter-spacing:-1.4;fill:#d6d6cf"
     aria-label="Chunks. Stamps." />
  <path
     d="m 77.264,246 v -35.04 h 6.72 l 4.32,15.12 4.512,-15.12 h 6.768 V 246 h -4.56 v -16.08 q 0,-2.544 0.096,-5.616 0.096,-3.12 0.24,-6.192 0.192,-3.12 0.384,-5.616 l -5.472,17.952 H 86.24 l -5.28,-17.52 q 0.432,3.504 0.624,7.824 0.192,4.272 0.192,9.168 V 246 Z m 36.08802,0.48 q -4.08,0 -6.48,-2.256 -2.352,-2.304 -2.352,-6 0,-3.696 2.448,-5.952 2.496,-2.256 6.528,-2.256 h 7.728 V 228 q 0,-4.848 -5.376,-4.848 -2.4,0 -3.888,0.912 -1.44,0.864 -1.536,2.448 h -4.704 q 0.24,-3.216 2.928,-5.28 2.688,-2.112 7.2,-2.112 4.848,0 7.488,2.304 2.64,2.304 2.64,6.48 V 246 h -4.656 v -4.848 h -0.096 q -0.336,2.448 -2.448,3.888 -2.064,1.44 -5.424,1.44 z m 1.248,-3.984 q 3.024,0 4.8,-1.44 1.824,-1.488 1.824,-4.032 v -3.504 h -7.296 q -2.064,0 -3.36,1.248 -1.248,1.2 -1.248,3.216 0,2.064 1.392,3.312 1.392,1.2 3.888,1.2 z M 133.02404,246 v -26.4 h 4.704 v 5.04 h 0.048 q 0.336,-2.592 2.16,-4.032 1.872,-1.488 4.896,-1.488 3.936,0 6.288,2.496 2.352,2.496 2.352,6.72 V 246 h -4.752 v -16.896 q 0,-2.88 -1.44,-4.416 -1.44,-1.536 -3.936,-1.536 -2.592,0 -4.08,1.632 -1.488,1.584 -1.488,4.464 V 246 Z m 27.16002,0 v -4.32 h 9.264 v -17.76 h -8.304 v -4.32 h 13.056 v 22.08 h 8.688 V 246 Z m 11.184,-31.056 q -1.632,0 -2.592,-0.816 -0.96,-0.864 -0.96,-2.304 0,-1.488 0.96,-2.352 0.96,-0.864 2.592,-0.864 1.632,0 2.592,0.864 0.96,0.864 0.96,2.352 0,1.44 -0.96,2.304 -0.96,0.816 -2.592,0.816 z M 193.72807,246 v -18.48 h -7.584 v -4.32 h 7.584 v -5.328 q 0,-3.168 2.064,-5.04 2.064,-1.872 5.616,-1.872 h 7.728 v 4.272 h -7.728 q -2.928,0 -2.928,2.688 v 5.28 h 10.656 v 4.32 h -10.656 V 246 Z m 31.67202,0.48 q -4.752,0 -7.68,-2.832 -2.88,-2.832 -2.88,-7.728 v -6.24 q 0,-4.896 2.88,-7.728 2.928,-2.832 7.68,-2.832 3.168,0 5.52,1.296 2.4,1.248 3.696,3.552 1.344,2.256 1.344,5.28 V 234 h -16.464 v 2.304 q 0,2.88 1.584,4.512 1.584,1.632 4.32,1.632 2.304,0 3.792,-0.864 1.488,-0.864 1.776,-2.4 h 4.752 q -0.48,3.36 -3.312,5.328 -2.832,1.968 -7.008,1.968 z m -5.904,-17.232 v 1.248 h 11.808 v -1.248 q 0,-3.024 -1.536,-4.656 -1.536,-1.632 -4.368,-1.632 -2.832,0 -4.368,1.632 -1.536,1.632 -1.536,4.656 z m 32.24803,17.136 q -4.512,0 -7.008,-2.016 -2.496,-2.016 -2.496,-5.664 h 4.704 q 0,1.728 1.248,2.736 1.296,0.96 3.552,0.96 h 2.112 q 2.352,0 3.6,-1.008 1.296,-1.008 1.296,-2.832 0,-3.216 -3.168,-3.6 l -7.104,-1.008 q -2.832,-0.432 -4.368,-2.304 -1.536,-1.92 -1.536,-4.944 0,-3.552 2.4,-5.52 2.4,-1.968 6.72,-1.968 h 2.112 q 4.032,0 6.528,1.92 2.496,1.92 2.64,5.088 h -4.8 q -0.096,-1.344 -1.248,-2.208 -1.152,-0.912 -3.12,-0.912 h -2.112 q -2.16,0 -3.36,0.96 -1.152,0.96 -1.152,2.592 0,2.64 2.64,2.976 l 6.672,0.96 q 6.864,0.912 6.864,7.968 0,3.744 -2.496,5.808 -2.448,2.016 -7.008,2.016 z M 282.84013,246 q -3.408,0 -5.424,-1.968 -1.968,-1.968 -1.968,-5.232 v -14.88 h -7.536 v -4.32 h 7.536 v -7.44 h 4.752 v 7.44 h 10.704 v 4.32 h -10.704 v 14.832 q 0,1.296 0.72,2.112 0.768,0.816 2.016,0.816 h 7.728 V 246 Z m 23.70402,0.384 q -4.512,0 -7.008,-2.016 -2.496,-2.016 -2.496,-5.664 h 4.704 q 0,1.728 1.248,2.736 1.296,0.96 3.552,0.96 h 2.112 q 2.352,0 3.6,-1.008 1.296,-1.008 1.296,-2.832 0,-3.216 -3.168,-3.6 l -7.104,-1.008 q -2.832,-0.432 -4.368,-2.304 -1.536,-1.92 -1.536,-4.944 0,-3.552 2.4,-5.52 2.4,-1.968 6.72,-1.968 h 2.112 q 4.032,0 6.528,1.92 2.496,1.92 2.64,5.088 h -4.8 q -0.096,-1.344 -1.248,-2.208 -1.152,-0.912 -3.12,-0.912 h -2.112 q -2.16,0 -3.36,0.96 -1.152,0.96 -1.152,2.592 0,2.64 2.64,2.976 l 6.672,0.96 q 6.864,0.912 6.864,7.968 0,3.744 -2.496,5.808 -2.448,2.016 -7.008,2.016 z m 28.45601,0.096 q -1.824,0 -2.976,-1.104 -1.104,-1.104 -1.104,-2.832 0,-1.824 1.104,-2.976 1.152,-1.152 2.976,-1.152 1.824,0 2.928,1.152 1.152,1.152 1.152,2.976 0,1.728 -1.152,2.832 -1.104,1.104 -2.928,1.104 z M 378.66421,246 v -35.04 h 6.72 l 4.32,15.12 4.512,-15.12 h 6.768 V 246 h -4.56 v -16.08 q 0,-2.544 0.096,-5.616 0.096,-3.12 0.24,-6.192 0.192,-3.12 0.384,-5.616 l -5.472,17.952 h -4.032 l -5.28,-17.52 q 0.432,3.504 0.624,7.824 0.192,4.272 0.192,9.168 V 246 Z m 36.08802,0.48 q -4.08,0 -6.48,-2.256 -2.352,-2.304 -2.352,-6 0,-3.696 2.448,-5.952 2.496,-2.256 6.528,-2.256 h 7.728 V 228 q 0,-4.848 -5.376,-4.848 -2.4,0 -3.888,0.912 -1.44,0.864 -1.536,2.448 h -4.704 q 0.24,-3.216 2.928,-5.28 2.688,-2.112 7.2,-2.112 4.848,0 7.488,2.304 2.64,2.304 2.64,6.48 V 246 h -4.656 v -4.848 h -0.096 q -0.336,2.448 -2.448,3.888 -2.064,1.44 -5.424,1.44 z m 1.248,-3.984 q 3.024,0 4.8,-1.44 1.824,-1.488 1.824,-4.032 v -3.504 h -7.296 q -2.064,0 -3.36,1.248 -1.248,1.2 -1.248,3.216 0,2.064 1.392,3.312 1.392,1.2 3.888,1.2 z m 18.424,3.504 v -26.4 h 4.704 v 5.04 h 0.048 q 0.336,-2.592 2.16,-4.032 1.872,-1.488 4.896,-1.488 3.936,0 6.288,2.496 2.352,2.496 2.352,6.72 V 246 h -4.752 v -16.896 q 0,-2.88 -1.44,-4.416 -1.44,-1.536 -3.936,-1.536 -2.592,0 -4.08,1.632 -1.488,1.584 -1.488,4.464 V 246 Z m 40.21602,0 q -3.408,0 -5.424,-1.968 -1.968,-1.968 -1.968,-5.232 v -14.88 h -7.536 v -4.32 h 7.536 v -7.44 h 4.752 v 7.44 h 10.704 v 4.32 h -10.704 v 14.832 q 0,1.296 0.72,2.112 0.768,0.816 2.016,0.816 h 7.728 V 246 Z m 22.31202,0.48 q -4.08,0 -6.48,-2.256 -2.352,-2.304 -2.352,-6 0,-3.696 2.448,-5.952 2.496,-2.256 6.528,-2.256 h 7.728 V 228 q 0,-4.848 -5.376,-4.848 -2.4,0 -3.888,0.912 -1.44,0.864 -1.536,2.448 h -4.704 q 0.24,-3.216 2.928,-5.28 2.688,-2.112 7.2,-2.112 4.848,0 7.488,2.304 2.64,2.304 2.64,6.48 V 246 h -4.656 v -4.848 h -0.096 q -0.336,2.448 -2.448,3.888 -2.064,1.44 -5.424,1.44 z m 1.248,-3.984 q 3.024,0 4.8,-1.44 1.824,-1.488 1.824,-4.032 v -3.504 h -7.296 q -2.064,0 -3.36,1.248 -1.248,1.2 -1.248,3.216 0,2.064 1.392,3.312 1.392,1.2 3.888,1.2 z M 517.5843,246 v -26.4 h 4.704 v 5.088 h 0.048 q 0.384,-2.592 2.208,-4.08 1.872,-1.488 4.944,-1.488 4.08,0 6.336,2.544 2.256,2.496 2.256,7.056 v 2.304 h -4.752 v -2.256 q 0,-5.52 -5.424,-5.52 -2.736,0 -4.176,1.584 -1.392,1.584 -1.392,4.512 V 246 Z m 34.16802,0.48 q -4.08,0 -6.48,-2.256 -2.352,-2.304 -2.352,-6 0,-3.696 2.448,-5.952 2.496,-2.256 6.528,-2.256 h 7.728 V 228 q 0,-4.848 -5.376,-4.848 -2.4,0 -3.888,0.912 -1.44,0.864 -1.536,2.448 h -4.704 q 0.24,-3.216 2.928,-5.28 2.688,-2.112 7.2,-2.112 4.848,0 7.488,2.304 2.64,2.304 2.64,6.48 V 246 h -4.656 v -4.848 h -0.096 q -0.336,2.448 -2.448,3.888 -2.064,1.44 -5.424,1.44 z m 1.248,-3.984 q 3.024,0 4.8,-1.44 1.824,-1.488 1.824,-4.032 v -3.504 h -7.296 q -2.064,0 -3.36,1.248 -1.248,1.2 -1.248,3.216 0,2.064 1.392,3.312 1.392,1.2 3.888,1.2 z m 22.6,12.144 3.84,-10.224 -9.84,-24.816 h 5.04 l 5.952,15.6 q 0.384,1.008 0.768,2.16 0.384,1.152 0.528,2.016 0.144,-0.864 0.48,-2.016 0.336,-1.152 0.72,-2.16 l 5.52,-15.6 h 5.04 l -13.104,35.04 z m 33.40002,-8.16 q -1.824,0 -2.976,-1.104 -1.104,-1.104 -1.104,-2.832 0,-1.824 1.104,-2.976 1.152,-1.152 2.976,-1.152 1.824,0 2.928,1.152 1.152,1.152 1.152,2.976 0,1.728 -1.152,2.832 -1.104,1.104 -2.928,1.104 z"
     id="text8"
     style="font-weight:500;font-size:48px;letter-spacing:-1.4;fill:#a8d68a"
     aria-label="Manifests. Mantaray." />
  <path
     d="m 77.984,292.12 q -0.744,0 -1.224,-0.36 -0.48,-0.372 -0.564,-1.02 H 76.184 V 292 h -1.08 v -8.76 h 1.08 v 1.92 l -0.024,1.5 h 0.012 q 0.096,-0.636 0.576,-1.008 0.492,-0.372 1.236,-0.372 0.996,0 1.584,0.66 0.588,0.66 0.588,1.8 v 1.932 q 0,1.128 -0.588,1.788 -0.588,0.66 -1.584,0.66 z m -0.36,-0.936 q 0.684,0 1.068,-0.36 0.384,-0.36 0.384,-1.164 v -1.92 q 0,-0.816 -0.384,-1.164 -0.384,-0.36 -1.068,-0.36 -0.66,0 -1.056,0.42 -0.384,0.42 -0.384,1.164 v 1.8 q 0,0.744 0.384,1.164 0.396,0.42 1.056,0.42 z M 82.220005,292 v -0.984 h 2.34 v -4.632 h -2.1 V 285.4 h 3.18 v 5.616 h 2.22 V 292 Z m 2.76,-7.788 q -0.396,0 -0.624,-0.204 -0.228,-0.204 -0.228,-0.552 0,-0.36 0.228,-0.564 0.228,-0.216 0.624,-0.216 0.396,0 0.624,0.216 0.228,0.204 0.228,0.564 0,0.348 -0.228,0.552 -0.228,0.204 -0.624,0.204 z M 89.504009,292 v -6.6 h 1.08 v 1.26 h 0.012 q 0.084,-0.66 0.54,-1.02 0.456,-0.36 1.212,-0.36 0.996,0 1.584,0.612 0.588,0.612 0.588,1.668 V 292 h -1.08 v -4.248 q 0,-0.756 -0.384,-1.152 -0.372,-0.408 -1.02,-0.408 -0.672,0 -1.068,0.42 -0.384,0.42 -0.384,1.188 v 4.2 z m 9.120005,0.12 q -1.02,0 -1.62,-0.564 -0.6,-0.576 -0.6,-1.5 0,-0.612 0.276,-1.068 0.276,-0.456 0.768,-0.708 0.492,-0.264 1.128,-0.264 h 2.039996 V 287.5 q 0,-1.284 -1.403996,-1.284 -0.624,0 -1.008,0.228 -0.384,0.228 -0.408,0.636 h -1.08 q 0.06,-0.78 0.72,-1.284 0.672,-0.516 1.776,-0.516 1.199996,0 1.835996,0.576 0.648,0.576 0.648,1.608 V 292 h -1.068 v -1.2 h -0.024 q -0.096,0.612 -0.611996,0.972 -0.516,0.348 -1.368,0.348 z m 0.264,-0.912 q 0.792,0 1.259996,-0.384 0.468,-0.384 0.468,-1.044 v -0.924 h -1.919996 q -0.528,0 -0.864,0.324 -0.324,0.312 -0.324,0.84 0,0.552 0.36,0.876 0.372,0.312 1.02,0.312 z M 104.14402,292 v -6.6 h 1.08 v 1.26 h 0.024 q 0.084,-0.636 0.54,-1.008 0.456,-0.372 1.224,-0.372 1.032,0 1.584,0.624 0.564,0.612 0.564,1.752 v 0.564 h -1.08 v -0.564 q 0,-1.44 -1.404,-1.44 -0.708,0 -1.08,0.408 -0.372,0.408 -0.372,1.176 v 4.2 z m 7.992,2.16 0.972,-2.568 -2.46,-6.192 h 1.164 l 1.56,4.08 q 0.096,0.24 0.18,0.504 0.084,0.264 0.12,0.456 0.036,-0.192 0.12,-0.456 0.084,-0.264 0.168,-0.504 l 1.452,-4.08 h 1.14 l -3.288,8.76 z M 125.12003,292 v -6.6 h 0.936 v 0.876 h 0.024 q 0.06,-0.444 0.348,-0.72 0.3,-0.276 0.756,-0.276 0.432,0 0.732,0.252 0.3,0.252 0.432,0.684 h 0.012 q 0.084,-0.432 0.372,-0.684 0.3,-0.252 0.756,-0.252 0.636,0 1.008,0.48 0.384,0.468 0.384,1.224 V 292 h -1.008 v -5.028 q 0,-0.396 -0.192,-0.624 -0.192,-0.24 -0.528,-0.24 -0.324,0 -0.516,0.228 -0.192,0.228 -0.192,0.624 V 292 h -0.888 v -5.028 q 0,-0.396 -0.192,-0.624 -0.192,-0.24 -0.516,-0.24 -0.336,0 -0.528,0.228 -0.192,0.228 -0.192,0.624 V 292 Z m 10.08001,0.12 q -1.164,0 -1.884,-0.696 -0.708,-0.708 -0.708,-1.944 v -1.56 q 0,-1.236 0.708,-1.932 0.72,-0.708 1.884,-0.708 0.78,0 1.356,0.312 0.588,0.312 0.912,0.876 0.324,0.564 0.324,1.332 v 1.176 h -4.128 v 0.624 q 0,0.732 0.42,1.164 0.42,0.42 1.116,0.42 0.6,0 0.984,-0.228 0.396,-0.24 0.48,-0.636 h 1.08 q -0.108,0.828 -0.804,1.32 -0.696,0.48 -1.74,0.48 z m -1.536,-3.984 h 3.072 V 287.8 q 0,-0.78 -0.408,-1.2 -0.396,-0.432 -1.128,-0.432 -0.732,0 -1.14,0.432 -0.396,0.42 -0.396,1.2 z m 6.48,3.864 v -6.6 h 1.08 v 1.26 h 0.024 q 0.084,-0.636 0.54,-1.008 0.456,-0.372 1.224,-0.372 1.032,0 1.584,0.624 0.564,0.612 0.564,1.752 v 0.564 h -1.08 v -0.564 q 0,-1.44 -1.404,-1.44 -0.708,0 -1.08,0.408 -0.372,0.408 -0.372,1.176 v 4.2 z m 7.02001,0 v -8.76 h 1.08 v 4.884 h 1.26 l 1.848,-2.724 h 1.236 l -2.124,3.144 2.244,3.456 h -1.26 l -1.92,-2.94 h -1.284 V 292 Z m 10.596,0 q -0.876,0 -1.404,-0.504 -0.516,-0.516 -0.516,-1.356 v -5.916 h -2.28 v -0.984 h 3.36 v 6.9 q 0,0.408 0.228,0.648 0.228,0.228 0.612,0.228 h 2.04 V 292 Z m 6.24,0.12 q -1.164,0 -1.884,-0.696 -0.708,-0.708 -0.708,-1.944 v -1.56 q 0,-1.236 0.708,-1.932 0.72,-0.708 1.884,-0.708 0.78,0 1.356,0.312 0.588,0.312 0.912,0.876 0.324,0.564 0.324,1.332 v 1.176 h -4.128 v 0.624 q 0,0.732 0.42,1.164 0.42,0.42 1.116,0.42 0.6,0 0.984,-0.228 0.396,-0.24 0.48,-0.636 h 1.08 q -0.108,0.828 -0.804,1.32 -0.696,0.48 -1.74,0.48 z m -1.536,-3.984 h 3.072 V 287.8 q 0,-0.78 -0.408,-1.2 -0.396,-0.432 -1.128,-0.432 -0.732,0 -1.14,0.432 -0.396,0.42 -0.396,1.2 z M 179.06006,292 q -0.816,0 -1.308,-0.468 -0.492,-0.48 -0.492,-1.272 v -3.876 h -1.896 V 285.4 h 1.896 v -1.86 h 1.08 v 1.86 h 2.7 v 0.984 h -2.7 v 3.876 q 0,0.336 0.192,0.552 0.204,0.204 0.528,0.204 h 1.92 V 292 Z m 4.28401,0 v -6.6 h 1.08 v 1.26 h 0.024 q 0.084,-0.636 0.54,-1.008 0.456,-0.372 1.224,-0.372 1.032,0 1.584,0.624 0.564,0.612 0.564,1.752 v 0.564 h -1.08 v -0.564 q 0,-1.44 -1.404,-1.44 -0.708,0 -1.08,0.408 -0.372,0.408 -0.372,1.176 v 4.2 z m 9.456,0.12 q -1.164,0 -1.884,-0.696 -0.708,-0.708 -0.708,-1.944 v -1.56 q 0,-1.236 0.708,-1.932 0.72,-0.708 1.884,-0.708 0.78,0 1.356,0.312 0.588,0.312 0.912,0.876 0.324,0.564 0.324,1.332 v 1.176 h -4.128 v 0.624 q 0,0.732 0.42,1.164 0.42,0.42 1.116,0.42 0.6,0 0.984,-0.228 0.396,-0.24 0.48,-0.636 h 1.08 q -0.108,0.828 -0.804,1.32 -0.696,0.48 -1.74,0.48 z m -1.536,-3.984 h 3.072 V 287.8 q 0,-0.78 -0.408,-1.2 -0.396,-0.432 -1.128,-0.432 -0.732,0 -1.14,0.432 -0.396,0.42 -0.396,1.2 z m 8.73601,3.984 q -1.164,0 -1.884,-0.696 -0.708,-0.708 -0.708,-1.944 v -1.56 q 0,-1.236 0.708,-1.932 0.72,-0.708 1.884,-0.708 0.78,0 1.356,0.312 0.588,0.312 0.912,0.876 0.324,0.564 0.324,1.332 v 1.176 h -4.128 v 0.624 q 0,0.732 0.42,1.164 0.42,0.42 1.116,0.42 0.6,0 0.984,-0.228 0.396,-0.24 0.48,-0.636 h 1.08 q -0.108,0.828 -0.804,1.32 -0.696,0.48 -1.74,0.48 z m -1.536,-3.984 h 3.072 V 287.8 q 0,-0.78 -0.408,-1.2 -0.396,-0.432 -1.128,-0.432 -0.732,0 -1.14,0.432 -0.396,0.42 -0.396,1.2 z m 15.936,0.744 q -0.444,0 -0.72,-0.264 -0.264,-0.264 -0.264,-0.684 0,-0.444 0.264,-0.72 0.276,-0.276 0.72,-0.276 0.444,0 0.708,0.276 0.276,0.276 0.276,0.72 0,0.42 -0.276,0.684 -0.264,0.264 -0.708,0.264 z m 11.90402,5.28 v -8.76 h 1.08 v 1.26 h 0.012 q 0.084,-0.648 0.564,-1.008 0.48,-0.372 1.224,-0.372 0.996,0 1.584,0.66 0.588,0.648 0.588,1.788 v 1.932 q 0,1.14 -0.588,1.8 -0.588,0.66 -1.584,0.66 -0.744,0 -1.224,-0.372 -0.48,-0.372 -0.564,-1.008 h -0.036 l 0.024,1.5 v 1.92 z m 2.52,-2.976 q 0.684,0 1.068,-0.36 0.384,-0.36 0.384,-1.164 v -1.92 q 0,-0.816 -0.384,-1.164 -0.384,-0.36 -1.068,-0.36 -0.66,0 -1.056,0.42 -0.384,0.42 -0.384,1.164 v 1.8 q 0,0.744 0.384,1.164 0.396,0.42 1.056,0.42 z m 7.176,0.912 q -1.188,0 -1.896,-0.696 -0.696,-0.696 -0.696,-1.944 v -1.512 q 0,-1.26 0.696,-1.944 0.696,-0.696 1.896,-0.696 1.2,0 1.896,0.696 0.696,0.684 0.696,1.944 v 1.512 q 0,1.248 -0.708,1.944 -0.696,0.696 -1.884,0.696 z m 0,-0.96 q 0.708,0 1.104,-0.396 0.408,-0.396 0.408,-1.164 v -1.752 q 0,-0.768 -0.408,-1.164 -0.396,-0.396 -1.104,-0.396 -0.696,0 -1.104,0.396 -0.408,0.396 -0.408,1.164 v 1.752 q 0,0.768 0.408,1.164 0.408,0.396 1.104,0.396 z m 6.936,0.96 q -1.104,0 -1.716,-0.492 -0.6,-0.504 -0.6,-1.416 h 1.08 q 0,0.456 0.324,0.72 0.324,0.252 0.912,0.252 h 0.528 q 0.6,0 0.924,-0.264 0.336,-0.264 0.336,-0.744 0,-0.852 -0.78,-0.96 l -1.824,-0.264 q -0.672,-0.096 -1.044,-0.552 -0.372,-0.468 -0.372,-1.224 0,-0.864 0.588,-1.356 0.6,-0.492 1.644,-0.492 h 0.528 q 0.96,0 1.56,0.48 0.612,0.468 0.66,1.236 h -1.092 q -0.024,-0.348 -0.336,-0.576 -0.3,-0.228 -0.792,-0.228 h -0.528 q -0.552,0 -0.864,0.252 -0.312,0.252 -0.312,0.684 0,0.696 0.636,0.792 l 1.704,0.24 q 1.68,0.24 1.68,1.968 0,0.924 -0.612,1.44 -0.6,0.504 -1.704,0.504 z M 251.06011,292 q -0.816,0 -1.308,-0.468 -0.492,-0.48 -0.492,-1.272 v -3.876 h -1.896 V 285.4 h 1.896 v -1.86 h 1.08 v 1.86 h 2.7 v 0.984 h -2.7 v 3.876 q 0,0.336 0.192,0.552 0.204,0.204 0.528,0.204 h 1.92 V 292 Z m 5.96401,0.12 q -1.02,0 -1.62,-0.564 -0.6,-0.576 -0.6,-1.5 0,-0.612 0.276,-1.068 0.276,-0.456 0.768,-0.708 0.492,-0.264 1.128,-0.264 h 2.04 V 287.5 q 0,-1.284 -1.404,-1.284 -0.624,0 -1.008,0.228 -0.384,0.228 -0.408,0.636 h -1.08 q 0.06,-0.78 0.72,-1.284 0.672,-0.516 1.776,-0.516 1.2,0 1.836,0.576 0.648,0.576 0.648,1.608 V 292 h -1.068 v -1.2 h -0.024 q -0.096,0.612 -0.612,0.972 -0.516,0.348 -1.368,0.348 z m 0.264,-0.912 q 0.792,0 1.26,-0.384 0.468,-0.384 0.468,-1.044 v -0.924 h -1.92 q -0.528,0 -0.864,0.324 -0.324,0.312 -0.324,0.84 0,0.552 0.36,0.876 0.372,0.312 1.02,0.312 z m 5.844,2.952 v -0.984 h 1.86 q 0.564,0 0.888,-0.324 0.324,-0.312 0.324,-0.852 v -0.6 l 0.024,-1.08 h -0.036 q -0.096,0.588 -0.564,0.912 -0.468,0.312 -1.176,0.312 -1.02,0 -1.608,-0.648 -0.588,-0.648 -0.588,-1.776 v -1.392 q 0,-1.128 0.588,-1.788 0.588,-0.66 1.608,-0.66 0.708,0 1.176,0.336 0.468,0.336 0.564,0.924 h 0.024 v -1.14 h 1.068 v 6.6 q 0,0.996 -0.624,1.572 -0.612,0.588 -1.68,0.588 z m 1.644,-3.516 q 0.672,0 1.056,-0.42 0.384,-0.42 0.384,-1.164 v -1.26 q 0,-0.744 -0.384,-1.164 -0.384,-0.42 -1.056,-0.42 -0.684,0 -1.068,0.396 -0.372,0.396 -0.372,1.068 v 1.5 q 0,0.672 0.372,1.068 0.384,0.396 1.068,0.396 z m 7.224,1.476 q -1.164,0 -1.884,-0.696 -0.708,-0.708 -0.708,-1.944 v -1.56 q 0,-1.236 0.708,-1.932 0.72,-0.708 1.884,-0.708 0.78,0 1.356,0.312 0.588,0.312 0.912,0.876 0.324,0.564 0.324,1.332 v 1.176 h -4.128 v 0.624 q 0,0.732 0.42,1.164 0.42,0.42 1.116,0.42 0.6,0 0.984,-0.228 0.396,-0.24 0.48,-0.636 h 1.08 q -0.108,0.828 -0.804,1.32 -0.696,0.48 -1.74,0.48 z m -1.536,-3.984 h 3.072 V 287.8 q 0,-0.78 -0.408,-1.2 -0.396,-0.432 -1.128,-0.432 -0.732,0 -1.14,0.432 -0.396,0.42 -0.396,1.2 z m 15.93602,0.744 q -0.444,0 -0.72,-0.264 -0.264,-0.264 -0.264,-0.684 0,-0.444 0.264,-0.72 0.276,-0.276 0.72,-0.276 0.444,0 0.708,0.276 0.276,0.276 0.276,0.72 0,0.42 -0.276,0.684 -0.264,0.264 -0.708,0.264 z m 14.49599,3.24 q -1.2,0 -1.92,-0.672 -0.72,-0.672 -0.72,-1.848 v -1.8 q 0,-1.176 0.72,-1.848 0.72,-0.672 1.92,-0.672 1.14,0 1.836,0.612 0.708,0.612 0.744,1.668 h -1.08 q -0.036,-0.636 -0.432,-0.972 -0.396,-0.348 -1.068,-0.348 -0.708,0 -1.14,0.408 -0.42,0.396 -0.42,1.14 v 1.812 q 0,0.744 0.42,1.152 0.432,0.408 1.14,0.408 0.672,0 1.068,-0.348 0.396,-0.348 0.432,-0.972 h 1.08 q -0.036,1.056 -0.744,1.668 -0.696,0.612 -1.836,0.612 z m 7.10402,-0.024 q -1.188,0 -1.896,-0.696 -0.696,-0.696 -0.696,-1.944 v -1.512 q 0,-1.26 0.696,-1.944 0.696,-0.696 1.896,-0.696 1.2,0 1.896,0.696 0.696,0.684 0.696,1.944 v 1.512 q 0,1.248 -0.708,1.944 -0.696,0.696 -1.884,0.696 z m 0,-0.96 q 0.708,0 1.104,-0.396 0.408,-0.396 0.408,-1.164 v -1.752 q 0,-0.768 -0.408,-1.164 -0.396,-0.396 -1.104,-0.396 -0.696,0 -1.104,0.396 -0.408,0.396 -0.408,1.164 v 1.752 q 0,0.768 0.408,1.164 0.408,0.396 1.104,0.396 z m 4.70401,0.864 v -6.6 h 1.08 v 1.26 h 0.012 q 0.084,-0.66 0.54,-1.02 0.456,-0.36 1.212,-0.36 0.996,0 1.584,0.612 0.588,0.612 0.588,1.668 V 292 h -1.08 v -4.248 q 0,-0.756 -0.384,-1.152 -0.372,-0.408 -1.02,-0.408 -0.672,0 -1.068,0.42 -0.384,0.42 -0.384,1.188 v 4.2 z m 10.356,0 q -0.816,0 -1.308,-0.468 -0.492,-0.48 -0.492,-1.272 v -3.876 h -1.896 V 285.4 h 1.896 v -1.86 h 1.08 v 1.86 h 2.7 v 0.984 h -2.7 v 3.876 q 0,0.336 0.192,0.552 0.204,0.204 0.528,0.204 h 1.92 V 292 Z m 4.28399,0 v -6.6 h 1.08 v 1.26 h 0.024 q 0.084,-0.636 0.54,-1.008 0.456,-0.372 1.224,-0.372 1.032,0 1.584,0.624 0.564,0.612 0.564,1.752 v 0.564 h -1.08 v -0.564 q 0,-1.44 -1.404,-1.44 -0.708,0 -1.08,0.408 -0.372,0.408 -0.372,1.176 v 4.2 z m 8.88001,0.12 q -1.02,0 -1.62,-0.564 -0.6,-0.576 -0.6,-1.5 0,-0.612 0.276,-1.068 0.276,-0.456 0.768,-0.708 0.492,-0.264 1.128,-0.264 h 2.04 V 287.5 q 0,-1.284 -1.404,-1.284 -0.624,0 -1.008,0.228 -0.384,0.228 -0.408,0.636 h -1.08 q 0.06,-0.78 0.72,-1.284 0.672,-0.516 1.776,-0.516 1.2,0 1.836,0.576 0.648,0.576 0.648,1.608 V 292 h -1.068 v -1.2 h -0.024 q -0.096,0.612 -0.612,0.972 -0.516,0.348 -1.368,0.348 z m 0.264,-0.912 q 0.792,0 1.26,-0.384 0.468,-0.384 0.468,-1.044 v -0.924 h -1.92 q -0.528,0 -0.864,0.324 -0.324,0.312 -0.324,0.84 0,0.552 0.36,0.876 0.372,0.312 1.02,0.312 z m 7.60802,0.912 q -1.2,0 -1.92,-0.672 -0.72,-0.672 -0.72,-1.848 v -1.8 q 0,-1.176 0.72,-1.848 0.72,-0.672 1.92,-0.672 1.14,0 1.836,0.612 0.708,0.612 0.744,1.668 h -1.08 q -0.036,-0.636 -0.432,-0.972 -0.396,-0.348 -1.068,-0.348 -0.708,0 -1.14,0.408 -0.42,0.396 -0.42,1.14 v 1.812 q 0,0.744 0.42,1.152 0.432,0.408 1.14,0.408 0.672,0 1.068,-0.348 0.396,-0.348 0.432,-0.972 h 1.08 q -0.036,1.056 -0.744,1.668 -0.696,0.612 -1.836,0.612 z m 7.76398,-0.12 q -0.816,0 -1.308,-0.468 -0.492,-0.48 -0.492,-1.272 v -3.876 h -1.896 V 285.4 h 1.896 v -1.86 h 1.08 v 1.86 h 2.7 v 0.984 h -2.7 v 3.876 q 0,0.336 0.192,0.552 0.204,0.204 0.528,0.204 h 1.92 V 292 Z m 6.27601,0.096 q -1.104,0 -1.716,-0.492 -0.6,-0.504 -0.6,-1.416 h 1.08 q 0,0.456 0.324,0.72 0.324,0.252 0.912,0.252 h 0.528 q 0.6,0 0.924,-0.264 0.336,-0.264 0.336,-0.744 0,-0.852 -0.78,-0.96 l -1.824,-0.264 q -0.672,-0.096 -1.044,-0.552 -0.372,-0.468 -0.372,-1.224 0,-0.864 0.588,-1.356 0.6,-0.492 1.644,-0.492 h 0.528 q 0.96,0 1.56,0.48 0.612,0.468 0.66,1.236 h -1.092 q -0.024,-0.348 -0.336,-0.576 -0.3,-0.228 -0.792,-0.228 h -0.528 q -0.552,0 -0.864,0.252 -0.312,0.252 -0.312,0.684 0,0.696 0.636,0.792 l 1.704,0.24 q 1.68,0.24 1.68,1.968 0,0.924 -0.612,1.44 -0.6,0.504 -1.704,0.504 z m 14.66403,-3.216 q -0.444,0 -0.72,-0.264 -0.264,-0.264 -0.264,-0.684 0,-0.444 0.264,-0.72 0.276,-0.276 0.72,-0.276 0.444,0 0.708,0.276 0.276,0.276 0.276,0.72 0,0.42 -0.276,0.684 -0.264,0.264 -0.708,0.264 z m 11.51999,3.12 v -6.6 h 0.936 v 0.876 h 0.024 q 0.06,-0.444 0.348,-0.72 0.3,-0.276 0.756,-0.276 0.432,0 0.732,0.252 0.3,0.252 0.432,0.684 h 0.012 q 0.084,-0.432 0.372,-0.684 0.3,-0.252 0.756,-0.252 0.636,0 1.008,0.48 0.384,0.468 0.384,1.224 V 292 h -1.008 v -5.028 q 0,-0.396 -0.192,-0.624 -0.192,-0.24 -0.528,-0.24 -0.324,0 -0.516,0.228 -0.192,0.228 -0.192,0.624 V 292 h -0.888 v -5.028 q 0,-0.396 -0.192,-0.624 -0.192,-0.24 -0.516,-0.24 -0.336,0 -0.528,0.228 -0.192,0.228 -0.192,0.624 V 292 Z m 9.50401,0.12 q -1.02,0 -1.62,-0.564 -0.6,-0.576 -0.6,-1.5 0,-0.612 0.276,-1.068 0.276,-0.456 0.768,-0.708 0.492,-0.264 1.128,-0.264 h 2.04 V 287.5 q 0,-1.284 -1.404,-1.284 -0.624,0 -1.008,0.228 -0.384,0.228 -0.408,0.636 h -1.08 q 0.06,-0.78 0.72,-1.284 0.672,-0.516 1.776,-0.516 1.2,0 1.836,0.576 0.648,0.576 0.648,1.608 V 292 h -1.068 v -1.2 h -0.024 q -0.096,0.612 -0.612,0.972 -0.516,0.348 -1.368,0.348 z m 0.264,-0.912 q 0.792,0 1.26,-0.384 0.468,-0.384 0.468,-1.044 v -0.924 h -1.92 q -0.528,0 -0.864,0.324 -0.324,0.312 -0.324,0.84 0,0.552 0.36,0.876 0.372,0.312 1.02,0.312 z m 5.01601,0.792 v -6.6 h 1.08 v 1.26 h 0.012 q 0.084,-0.66 0.54,-1.02 0.456,-0.36 1.212,-0.36 0.996,0 1.584,0.612 0.588,0.612 0.588,1.668 V 292 h -1.08 v -4.248 q 0,-0.756 -0.384,-1.152 -0.372,-0.408 -1.02,-0.408 -0.672,0 -1.068,0.42 -0.384,0.42 -0.384,1.188 v 4.2 z m 10.35599,0 q -0.816,0 -1.308,-0.468 -0.492,-0.48 -0.492,-1.272 v -3.876 h -1.896 V 285.4 h 1.896 v -1.86 h 1.08 v 1.86 h 2.7 v 0.984 h -2.7 v 3.876 q 0,0.336 0.192,0.552 0.204,0.204 0.528,0.204 h 1.92 V 292 Z m 5.96401,0.12 q -1.02,0 -1.62,-0.564 -0.6,-0.576 -0.6,-1.5 0,-0.612 0.276,-1.068 0.276,-0.456 0.768,-0.708 0.492,-0.264 1.128,-0.264 h 2.04 V 287.5 q 0,-1.284 -1.404,-1.284 -0.624,0 -1.008,0.228 -0.384,0.228 -0.408,0.636 h -1.08 q 0.06,-0.78 0.72,-1.284 0.672,-0.516 1.776,-0.516 1.2,0 1.836,0.576 0.648,0.576 0.648,1.608 V 292 h -1.068 v -1.2 h -0.024 q -0.096,0.612 -0.612,0.972 -0.516,0.348 -1.368,0.348 z m 0.264,-0.912 q 0.792,0 1.26,-0.384 0.468,-0.384 0.468,-1.044 v -0.924 h -1.92 q -0.528,0 -0.864,0.324 -0.324,0.312 -0.324,0.84 0,0.552 0.36,0.876 0.372,0.312 1.02,0.312 z m 5.25601,0.792 v -6.6 h 1.08 v 1.26 h 0.024 q 0.084,-0.636 0.54,-1.008 0.456,-0.372 1.224,-0.372 1.032,0 1.584,0.624 0.564,0.612 0.564,1.752 v 0.564 h -1.08 v -0.564 q 0,-1.44 -1.404,-1.44 -0.708,0 -1.08,0.408 -0.372,0.408 -0.372,1.176 v 4.2 z m 8.88001,0.12 q -1.02,0 -1.62,-0.564 -0.6,-0.576 -0.6,-1.5 0,-0.612 0.276,-1.068 0.276,-0.456 0.768,-0.708 0.492,-0.264 1.128,-0.264 h 2.04 V 287.5 q 0,-1.284 -1.404,-1.284 -0.624,0 -1.008,0.228 -0.384,0.228 -0.408,0.636 h -1.08 q 0.06,-0.78 0.72,-1.284 0.672,-0.516 1.776,-0.516 1.2,0 1.836,0.576 0.648,0.576 0.648,1.608 V 292 h -1.068 v -1.2 h -0.024 q -0.096,0.612 -0.612,0.972 -0.516,0.348 -1.368,0.348 z m 0.264,-0.912 q 0.792,0 1.26,-0.384 0.468,-0.384 0.468,-1.044 v -0.924 h -1.92 q -0.528,0 -0.864,0.324 -0.324,0.312 -0.324,0.84 0,0.552 0.36,0.876 0.372,0.312 1.02,0.312 z m 6.04801,2.952 0.972,-2.568 -2.46,-6.192 h 1.164 l 1.56,4.08 q 0.096,0.24 0.18,0.504 0.084,0.264 0.12,0.456 0.036,-0.192 0.12,-0.456 0.084,-0.264 0.168,-0.504 l 1.452,-4.08 h 1.14 l -3.288,8.76 z m 12.984,-2.16 v -6.6 h 0.936 v 0.876 h 0.024 q 0.06,-0.444 0.348,-0.72 0.3,-0.276 0.756,-0.276 0.432,0 0.732,0.252 0.3,0.252 0.432,0.684 h 0.012 q 0.084,-0.432 0.372,-0.684 0.3,-0.252 0.756,-0.252 0.636,0 1.008,0.48 0.384,0.468 0.384,1.224 V 292 h -1.008 v -5.028 q 0,-0.396 -0.192,-0.624 -0.192,-0.24 -0.528,-0.24 -0.324,0 -0.516,0.228 -0.192,0.228 -0.192,0.624 V 292 h -0.888 v -5.028 q 0,-0.396 -0.192,-0.624 -0.192,-0.24 -0.516,-0.24 -0.336,0 -0.528,0.228 -0.192,0.228 -0.192,0.624 V 292 Z m 9.50401,0.12 q -1.02,0 -1.62,-0.564 -0.6,-0.576 -0.6,-1.5 0,-0.612 0.276,-1.068 0.276,-0.456 0.768,-0.708 0.492,-0.264 1.128,-0.264 h 2.04 V 287.5 q 0,-1.284 -1.404,-1.284 -0.624,0 -1.008,0.228 -0.384,0.228 -0.408,0.636 h -1.08 q 0.06,-0.78 0.72,-1.284 0.672,-0.516 1.776,-0.516 1.2,0 1.836,0.576 0.648,0.576 0.648,1.608 V 292 h -1.068 v -1.2 h -0.024 q -0.096,0.612 -0.612,0.972 -0.516,0.348 -1.368,0.348 z m 0.264,-0.912 q 0.792,0 1.26,-0.384 0.468,-0.384 0.468,-1.044 v -0.924 h -1.92 q -0.528,0 -0.864,0.324 -0.324,0.312 -0.324,0.84 0,0.552 0.36,0.876 0.372,0.312 1.02,0.312 z m 5.01598,0.792 v -6.6 h 1.08 v 1.26 h 0.012 q 0.084,-0.66 0.54,-1.02 0.456,-0.36 1.212,-0.36 0.996,0 1.584,0.612 0.588,0.612 0.588,1.668 V 292 h -1.08 v -4.248 q 0,-0.756 -0.384,-1.152 -0.372,-0.408 -1.02,-0.408 -0.672,0 -1.068,0.42 -0.384,0.42 -0.384,1.188 v 4.2 z m 7.11601,0 v -0.984 h 2.34 v -4.632 h -2.1 V 285.4 h 3.18 v 5.616 h 2.22 V 292 Z m 2.76,-7.788 q -0.396,0 -0.624,-0.204 -0.228,-0.204 -0.228,-0.552 0,-0.36 0.228,-0.564 0.228,-0.216 0.624,-0.216 0.396,0 0.624,0.216 0.228,0.204 0.228,0.564 0,0.348 -0.228,0.552 -0.228,0.204 -0.624,0.204 z m 6.00002,7.788 v -4.716 h -1.92 V 286.3 h 1.92 v -1.38 q 0,-0.78 0.492,-1.224 0.492,-0.456 1.356,-0.456 h 1.932 v 0.984 h -1.932 q -0.768,0 -0.768,0.696 v 1.38 h 2.7 v 0.984 h -2.7 V 292 Z m 8.22001,0.12 q -1.164,0 -1.884,-0.696 -0.708,-0.708 -0.708,-1.944 v -1.56 q 0,-1.236 0.708,-1.932 0.72,-0.708 1.884,-0.708 0.78,0 1.356,0.312 0.588,0.312 0.912,0.876 0.324,0.564 0.324,1.332 v 1.176 h -4.128 v 0.624 q 0,0.732 0.42,1.164 0.42,0.42 1.116,0.42 0.6,0 0.984,-0.228 0.396,-0.24 0.48,-0.636 h 1.08 q -0.108,0.828 -0.804,1.32 -0.696,0.48 -1.74,0.48 z m -1.536,-3.984 h 3.072 V 287.8 q 0,-0.78 -0.408,-1.2 -0.396,-0.432 -1.128,-0.432 -0.732,0 -1.14,0.432 -0.396,0.42 -0.396,1.2 z m 8.47201,3.96 q -1.104,0 -1.716,-0.492 -0.6,-0.504 -0.6,-1.416 h 1.08 q 0,0.456 0.324,0.72 0.324,0.252 0.912,0.252 h 0.528 q 0.6,0 0.924,-0.264 0.336,-0.264 0.336,-0.744 0,-0.852 -0.78,-0.96 l -1.824,-0.264 q -0.672,-0.096 -1.044,-0.552 -0.372,-0.468 -0.372,-1.224 0,-0.864 0.588,-1.356 0.6,-0.492 1.644,-0.492 h 0.528 q 0.96,0 1.56,0.48 0.612,0.468 0.66,1.236 h -1.092 q -0.024,-0.348 -0.336,-0.576 -0.3,-0.228 -0.792,-0.228 h -0.528 q -0.552,0 -0.864,0.252 -0.312,0.252 -0.312,0.684 0,0.696 0.636,0.792 l 1.704,0.24 q 1.68,0.24 1.68,1.968 0,0.924 -0.612,1.44 -0.6,0.504 -1.704,0.504 z M 503.06026,292 q -0.816,0 -1.308,-0.468 -0.492,-0.48 -0.492,-1.272 v -3.876 h -1.896 V 285.4 h 1.896 v -1.86 h 1.08 v 1.86 h 2.7 v 0.984 h -2.7 v 3.876 q 0,0.336 0.192,0.552 0.204,0.204 0.528,0.204 h 1.92 V 292 Z m 14.40003,0 q -0.816,0 -1.308,-0.468 -0.492,-0.48 -0.492,-1.272 v -3.876 h -1.896 V 285.4 h 1.896 v -1.86 h 1.08 v 1.86 h 2.7 v 0.984 h -2.7 v 3.876 q 0,0.336 0.192,0.552 0.204,0.204 0.528,0.204 h 1.92 V 292 Z m 4.28398,0 v -6.6 h 1.08 v 1.26 h 0.024 q 0.084,-0.636 0.54,-1.008 0.456,-0.372 1.224,-0.372 1.032,0 1.584,0.624 0.564,0.612 0.564,1.752 v 0.564 h -1.08 v -0.564 q 0,-1.44 -1.404,-1.44 -0.708,0 -1.08,0.408 -0.372,0.408 -0.372,1.176 v 4.2 z m 6.87601,0 v -0.984 h 2.34 v -4.632 h -2.1 V 285.4 h 3.18 v 5.616 h 2.22 V 292 Z m 2.76,-7.788 q -0.396,0 -0.624,-0.204 -0.228,-0.204 -0.228,-0.552 0,-0.36 0.228,-0.564 0.228,-0.216 0.624,-0.216 0.396,0 0.624,0.216 0.228,0.204 0.228,0.564 0,0.348 -0.228,0.552 -0.228,0.204 -0.624,0.204 z m 7.02001,7.908 q -1.164,0 -1.884,-0.696 -0.708,-0.708 -0.708,-1.944 v -1.56 q 0,-1.236 0.708,-1.932 0.72,-0.708 1.884,-0.708 0.78,0 1.356,0.312 0.588,0.312 0.912,0.876 0.324,0.564 0.324,1.332 v 1.176 h -4.128 v 0.624 q 0,0.732 0.42,1.164 0.42,0.42 1.116,0.42 0.6,0 0.984,-0.228 0.396,-0.24 0.48,-0.636 h 1.08 q -0.108,0.828 -0.804,1.32 -0.696,0.48 -1.74,0.48 z m -1.536,-3.984 h 3.072 V 287.8 q 0,-0.78 -0.408,-1.2 -0.396,-0.432 -1.128,-0.432 -0.732,0 -1.14,0.432 -0.396,0.42 -0.396,1.2 z"
     id="text9"
     style="font-size:12px;fill:#5e7c4e"
     aria-label="binary merkle tree · postage · contracts · mantaray manifest trie" />
  <path
     d="m 78.26,306 q -0.816,0 -1.308,-0.468 -0.492,-0.48 -0.492,-1.272 v -3.876 H 74.564 V 299.4 h 1.896 v -1.86 h 1.08 v 1.86 h 2.7 v 0.984 h -2.7 v 3.876 q 0,0.336 0.192,0.552 0.204,0.204 0.528,0.204 h 1.92 V 306 Z m 4.044005,0 v -8.76 h 1.08 v 3.42 h 0.012 q 0.084,-0.66 0.54,-1.02 0.456,-0.36 1.212,-0.36 0.996,0 1.584,0.612 0.588,0.612 0.588,1.668 V 306 h -1.08 v -4.26 q 0,-0.744 -0.384,-1.14 -0.372,-0.408 -1.02,-0.408 -0.672,0 -1.068,0.42 -0.384,0.42 -0.384,1.188 v 4.2 z m 9.696004,0.12 q -1.164,0 -1.884,-0.696 -0.708,-0.708 -0.708,-1.944 v -1.56 q 0,-1.236 0.708,-1.932 0.72,-0.708 1.884,-0.708 0.78,0 1.356,0.312 0.588,0.312 0.912,0.876 0.324,0.564 0.324,1.332 v 1.176 h -4.128 v 0.624 q 0,0.732 0.42,1.164 0.42,0.42 1.116,0.42 0.6,0 0.984,-0.228 0.396,-0.24 0.48,-0.636 h 1.08 q -0.108,0.828 -0.804,1.32 -0.696,0.48 -1.74,0.48 z m -1.536,-3.984 h 3.072 V 301.8 q 0,-0.78 -0.408,-1.2 -0.396,-0.432 -1.128,-0.432 -0.732,0 -1.14,0.432 -0.396,0.42 -0.396,1.2 z m 15.672011,3.96 q -1.104,0 -1.716,-0.492 -0.6,-0.504 -0.6,-1.416 h 1.08 q 0,0.456 0.324,0.72 0.324,0.252 0.912,0.252 h 0.528 q 0.6,0 0.924,-0.264 0.336,-0.264 0.336,-0.744 0,-0.852 -0.78,-0.96 l -1.824,-0.264 q -0.672,-0.096 -1.044,-0.552 -0.372,-0.468 -0.372,-1.224 0,-0.864 0.588,-1.356 0.6,-0.492 1.644,-0.492 h 0.528 q 0.96,0 1.56,0.48 0.612,0.468 0.66,1.236 h -1.092 q -0.024,-0.348 -0.336,-0.576 -0.3,-0.228 -0.792,-0.228 h -0.528 q -0.552,0 -0.864,0.252 -0.312,0.252 -0.312,0.684 0,0.696 0.636,0.792 l 1.704,0.24 q 1.68,0.24 1.68,1.968 0,0.924 -0.612,1.44 -0.6,0.504 -1.704,0.504 z m 7.452,0.024 q -1.14,0 -1.824,-0.672 -0.684,-0.684 -0.684,-1.848 v -4.2 h 1.08 v 4.2 q 0,0.72 0.384,1.152 0.384,0.42 1.044,0.42 0.672,0 1.056,-0.42 0.396,-0.432 0.396,-1.152 v -4.2 h 1.08 v 4.2 q 0,1.164 -0.696,1.848 -0.696,0.672 -1.836,0.672 z m 7.59601,0 q -0.744,0 -1.224,-0.36 -0.48,-0.372 -0.564,-1.02 h -0.012 V 306 h -1.08 v -8.76 h 1.08 v 1.92 l -0.024,1.5 h 0.012 q 0.096,-0.636 0.576,-1.008 0.492,-0.372 1.236,-0.372 0.996,0 1.584,0.66 0.588,0.66 0.588,1.8 v 1.932 q 0,1.128 -0.588,1.788 -0.588,0.66 -1.584,0.66 z m -0.36,-0.936 q 0.684,0 1.068,-0.36 0.384,-0.36 0.384,-1.164 v -1.92 q 0,-0.816 -0.384,-1.164 -0.384,-0.36 -1.068,-0.36 -0.66,0 -1.056,0.42 -0.384,0.42 -0.384,1.164 v 1.8 q 0,0.744 0.384,1.164 0.396,0.42 1.056,0.42 z m 6.912,0.912 q -1.104,0 -1.716,-0.492 -0.6,-0.504 -0.6,-1.416 h 1.08 q 0,0.456 0.324,0.72 0.324,0.252 0.912,0.252 h 0.528 q 0.6,0 0.924,-0.264 0.336,-0.264 0.336,-0.744 0,-0.852 -0.78,-0.96 l -1.824,-0.264 q -0.672,-0.096 -1.044,-0.552 -0.372,-0.468 -0.372,-1.224 0,-0.864 0.588,-1.356 0.6,-0.492 1.644,-0.492 h 0.528 q 0.96,0 1.56,0.48 0.612,0.468 0.66,1.236 h -1.092 q -0.024,-0.348 -0.336,-0.576 -0.3,-0.228 -0.792,-0.228 h -0.528 q -0.552,0 -0.864,0.252 -0.312,0.252 -0.312,0.684 0,0.696 0.636,0.792 l 1.704,0.24 q 1.68,0.24 1.68,1.968 0,0.924 -0.612,1.44 -0.6,0.504 -1.704,0.504 z M 135.86004,306 q -0.816,0 -1.308,-0.468 -0.492,-0.48 -0.492,-1.272 v -3.876 h -1.896 V 299.4 h 1.896 v -1.86 h 1.08 v 1.86 h 2.7 v 0.984 h -2.7 v 3.876 q 0,0.336 0.192,0.552 0.204,0.204 0.528,0.204 h 1.92 V 306 Z m 4.284,0 v -6.6 h 1.08 v 1.26 h 0.024 q 0.084,-0.636 0.54,-1.008 0.456,-0.372 1.224,-0.372 1.032,0 1.584,0.624 0.564,0.612 0.564,1.752 v 0.564 h -1.08 v -0.564 q 0,-1.44 -1.404,-1.44 -0.708,0 -1.08,0.408 -0.372,0.408 -0.372,1.176 v 4.2 z m 8.88001,0.12 q -1.02,0 -1.62,-0.564 -0.6,-0.576 -0.6,-1.5 0,-0.612 0.276,-1.068 0.276,-0.456 0.768,-0.708 0.492,-0.264 1.128,-0.264 h 2.04 V 301.5 q 0,-1.284 -1.404,-1.284 -0.624,0 -1.008,0.228 -0.384,0.228 -0.408,0.636 h -1.08 q 0.06,-0.78 0.72,-1.284 0.672,-0.516 1.776,-0.516 1.2,0 1.836,0.576 0.648,0.576 0.648,1.608 V 306 h -1.068 v -1.2 h -0.024 q -0.096,0.612 -0.612,0.972 -0.516,0.348 -1.368,0.348 z m 0.264,-0.912 q 0.792,0 1.26,-0.384 0.468,-0.384 0.468,-1.044 v -0.924 h -1.92 q -0.528,0 -0.864,0.324 -0.324,0.312 -0.324,0.84 0,0.552 0.36,0.876 0.372,0.312 1.02,0.312 z m 8.172,0.792 q -0.816,0 -1.308,-0.468 -0.492,-0.48 -0.492,-1.272 v -3.876 h -1.896 V 299.4 h 1.896 v -1.86 h 1.08 v 1.86 h 2.7 v 0.984 h -2.7 v 3.876 q 0,0.336 0.192,0.552 0.204,0.204 0.528,0.204 h 1.92 V 306 Z m 6.54,0.12 q -1.164,0 -1.884,-0.696 -0.708,-0.708 -0.708,-1.944 v -1.56 q 0,-1.236 0.708,-1.932 0.72,-0.708 1.884,-0.708 0.78,0 1.356,0.312 0.588,0.312 0.912,0.876 0.324,0.564 0.324,1.332 v 1.176 h -4.128 v 0.624 q 0,0.732 0.42,1.164 0.42,0.42 1.116,0.42 0.6,0 0.984,-0.228 0.396,-0.24 0.48,-0.636 h 1.08 q -0.108,0.828 -0.804,1.32 -0.696,0.48 -1.74,0.48 z m -1.536,-3.984 h 3.072 V 301.8 q 0,-0.78 -0.408,-1.2 -0.396,-0.432 -1.128,-0.432 -0.732,0 -1.14,0.432 -0.396,0.42 -0.396,1.2 z M 179.06006,306 q -0.816,0 -1.308,-0.468 -0.492,-0.48 -0.492,-1.272 v -3.876 h -1.896 V 299.4 h 1.896 v -1.86 h 1.08 v 1.86 h 2.7 v 0.984 h -2.7 v 3.876 q 0,0.336 0.192,0.552 0.204,0.204 0.528,0.204 h 1.92 V 306 Z m 4.04401,0 v -8.76 h 1.08 v 3.42 h 0.012 q 0.084,-0.66 0.54,-1.02 0.456,-0.36 1.212,-0.36 0.996,0 1.584,0.612 0.588,0.612 0.588,1.668 V 306 h -1.08 v -4.26 q 0,-0.744 -0.384,-1.14 -0.372,-0.408 -1.02,-0.408 -0.672,0 -1.068,0.42 -0.384,0.42 -0.384,1.188 v 4.2 z m 9.12,0.12 q -1.02,0 -1.62,-0.564 -0.6,-0.576 -0.6,-1.5 0,-0.612 0.276,-1.068 0.276,-0.456 0.768,-0.708 0.492,-0.264 1.128,-0.264 h 2.04 V 301.5 q 0,-1.284 -1.404,-1.284 -0.624,0 -1.008,0.228 -0.384,0.228 -0.408,0.636 h -1.08 q 0.06,-0.78 0.72,-1.284 0.672,-0.516 1.776,-0.516 1.2,0 1.836,0.576 0.648,0.576 0.648,1.608 V 306 h -1.068 v -1.2 h -0.024 q -0.096,0.612 -0.612,0.972 -0.516,0.348 -1.368,0.348 z m 0.264,-0.912 q 0.792,0 1.26,-0.384 0.468,-0.384 0.468,-1.044 v -0.924 h -1.92 q -0.528,0 -0.864,0.324 -0.324,0.312 -0.324,0.84 0,0.552 0.36,0.876 0.372,0.312 1.02,0.312 z m 8.17201,0.792 q -0.816,0 -1.308,-0.468 -0.492,-0.48 -0.492,-1.272 v -3.876 h -1.896 V 299.4 h 1.896 v -1.86 h 1.08 v 1.86 h 2.7 v 0.984 h -2.7 v 3.876 q 0,0.336 0.192,0.552 0.204,0.204 0.528,0.204 h 1.92 V 306 Z m 13.032,0 -2.244,-6.6 h 1.164 l 1.44,4.44 q 0.132,0.396 0.228,0.768 0.096,0.36 0.144,0.564 0.06,-0.204 0.144,-0.564 0.084,-0.372 0.204,-0.768 l 1.44,-4.44 h 1.14 l -2.244,6.6 z m 7.90801,0.12 q -1.164,0 -1.884,-0.696 -0.708,-0.708 -0.708,-1.944 v -1.56 q 0,-1.236 0.708,-1.932 0.72,-0.708 1.884,-0.708 0.78,0 1.356,0.312 0.588,0.312 0.912,0.876 0.324,0.564 0.324,1.332 v 1.176 h -4.128 v 0.624 q 0,0.732 0.42,1.164 0.42,0.42 1.116,0.42 0.6,0 0.984,-0.228 0.396,-0.24 0.48,-0.636 h 1.08 q -0.108,0.828 -0.804,1.32 -0.696,0.48 -1.74,0.48 z m -1.536,-3.984 h 3.072 V 301.8 q 0,-0.78 -0.408,-1.2 -0.396,-0.432 -1.128,-0.432 -0.732,0 -1.14,0.432 -0.396,0.42 -0.396,1.2 z M 226.5441,306 v -6.6 h 1.08 v 1.26 h 0.024 q 0.084,-0.636 0.54,-1.008 0.456,-0.372 1.224,-0.372 1.032,0 1.584,0.624 0.564,0.612 0.564,1.752 v 0.564 h -1.08 v -0.564 q 0,-1.44 -1.404,-1.44 -0.708,0 -1.08,0.408 -0.372,0.408 -0.372,1.176 v 4.2 z m 10.116,0 q -0.816,0 -1.308,-0.468 -0.492,-0.48 -0.492,-1.272 v -3.876 h -1.896 V 299.4 h 1.896 v -1.86 h 1.08 v 1.86 h 2.7 v 0.984 h -2.7 v 3.876 q 0,0.336 0.192,0.552 0.204,0.204 0.528,0.204 h 1.92 V 306 Z m 6.54,0.12 q -1.164,0 -1.884,-0.696 -0.708,-0.708 -0.708,-1.944 v -1.56 q 0,-1.236 0.708,-1.932 0.72,-0.708 1.884,-0.708 0.78,0 1.356,0.312 0.588,0.312 0.912,0.876 0.324,0.564 0.324,1.332 v 1.176 h -4.128 v 0.624 q 0,0.732 0.42,1.164 0.42,0.42 1.116,0.42 0.6,0 0.984,-0.228 0.396,-0.24 0.48,-0.636 h 1.08 q -0.108,0.828 -0.804,1.32 -0.696,0.48 -1.74,0.48 z m -1.536,-3.984 h 3.072 V 301.8 q 0,-0.78 -0.408,-1.2 -0.396,-0.432 -1.128,-0.432 -0.732,0 -1.14,0.432 -0.396,0.42 -0.396,1.2 z m 5.73601,3.864 2.34,-3.396 -2.196,-3.204 h 1.272 l 1.308,2.04 q 0.084,0.132 0.156,0.288 0.084,0.156 0.132,0.252 0.036,-0.096 0.108,-0.252 0.084,-0.156 0.168,-0.288 l 1.308,-2.04 h 1.272 l -2.196,3.216 2.328,3.384 h -1.272 l -1.416,-2.16 q -0.084,-0.132 -0.168,-0.3 -0.072,-0.18 -0.132,-0.288 -0.048,0.108 -0.144,0.288 -0.084,0.168 -0.18,0.3 l -1.416,2.16 z m 16.82401,0.12 q -1.02,0 -1.62,-0.564 -0.6,-0.576 -0.6,-1.5 0,-0.612 0.276,-1.068 0.276,-0.456 0.768,-0.708 0.492,-0.264 1.128,-0.264 h 2.04 V 301.5 q 0,-1.284 -1.404,-1.284 -0.624,0 -1.008,0.228 -0.384,0.228 -0.408,0.636 h -1.08 q 0.06,-0.78 0.72,-1.284 0.672,-0.516 1.776,-0.516 1.2,0 1.836,0.576 0.648,0.576 0.648,1.608 V 306 h -1.068 v -1.2 h -0.024 q -0.096,0.612 -0.612,0.972 -0.516,0.348 -1.368,0.348 z m 0.264,-0.912 q 0.792,0 1.26,-0.384 0.468,-0.384 0.468,-1.044 v -0.924 h -1.92 q -0.528,0 -0.864,0.324 -0.324,0.312 -0.324,0.84 0,0.552 0.36,0.876 0.372,0.312 1.02,0.312 z m 5.016,0.792 v -6.6 h 1.08 v 1.26 h 0.012 q 0.084,-0.66 0.54,-1.02 0.456,-0.36 1.212,-0.36 0.996,0 1.584,0.612 0.588,0.612 0.588,1.668 V 306 h -1.08 v -4.248 q 0,-0.756 -0.384,-1.152 -0.372,-0.408 -1.02,-0.408 -0.672,0 -1.068,0.42 -0.384,0.42 -0.384,1.188 v 4.2 z m 9.31201,0.12 q -0.984,0 -1.584,-0.66 -0.588,-0.66 -0.588,-1.788 v -1.932 q 0,-1.14 0.588,-1.8 0.588,-0.66 1.584,-0.66 0.744,0 1.224,0.372 0.492,0.372 0.588,1.008 h 0.012 l -0.024,-1.5 v -1.92 h 1.08 V 306 h -1.08 v -1.26 h -0.012 q -0.084,0.648 -0.564,1.02 -0.48,0.36 -1.224,0.36 z m 0.36,-0.936 q 0.672,0 1.056,-0.42 0.384,-0.42 0.384,-1.164 v -1.8 q 0,-0.744 -0.384,-1.164 -0.384,-0.42 -1.056,-0.42 -0.684,0 -1.068,0.36 -0.384,0.348 -0.384,1.164 v 1.92 q 0,0.804 0.384,1.164 0.384,0.36 1.068,0.36 z m 14.42401,0.912 q -1.188,0 -1.896,-0.696 -0.696,-0.696 -0.696,-1.944 v -1.512 q 0,-1.26 0.696,-1.944 0.696,-0.696 1.896,-0.696 1.2,0 1.896,0.696 0.696,0.684 0.696,1.944 v 1.512 q 0,1.248 -0.708,1.944 -0.696,0.696 -1.884,0.696 z m 0,-0.96 q 0.708,0 1.104,-0.396 0.408,-0.396 0.408,-1.164 v -1.752 q 0,-0.768 -0.408,-1.164 -0.396,-0.396 -1.104,-0.396 -0.696,0 -1.104,0.396 -0.408,0.396 -0.408,1.164 v 1.752 q 0,0.768 0.408,1.164 0.408,0.396 1.104,0.396 z m 7.85999,0.864 q -0.816,0 -1.308,-0.468 -0.492,-0.48 -0.492,-1.272 v -3.876 h -1.896 V 299.4 h 1.896 v -1.86 h 1.08 v 1.86 h 2.7 v 0.984 h -2.7 v 3.876 q 0,0.336 0.192,0.552 0.204,0.204 0.528,0.204 h 1.92 V 306 Z m 4.04402,0 v -8.76 h 1.08 v 3.42 h 0.012 q 0.084,-0.66 0.54,-1.02 0.456,-0.36 1.212,-0.36 0.996,0 1.584,0.612 0.588,0.612 0.588,1.668 V 306 h -1.08 v -4.26 q 0,-0.744 -0.384,-1.14 -0.372,-0.408 -1.02,-0.408 -0.672,0 -1.068,0.42 -0.384,0.42 -0.384,1.188 v 4.2 z m 9.69601,0.12 q -1.164,0 -1.884,-0.696 -0.708,-0.708 -0.708,-1.944 v -1.56 q 0,-1.236 0.708,-1.932 0.72,-0.708 1.884,-0.708 0.78,0 1.356,0.312 0.588,0.312 0.912,0.876 0.324,0.564 0.324,1.332 v 1.176 h -4.128 v 0.624 q 0,0.732 0.42,1.164 0.42,0.42 1.116,0.42 0.6,0 0.984,-0.228 0.396,-0.24 0.48,-0.636 h 1.08 q -0.108,0.828 -0.804,1.32 -0.696,0.48 -1.74,0.48 z m -1.536,-3.984 h 3.072 V 301.8 q 0,-0.78 -0.408,-1.2 -0.396,-0.432 -1.128,-0.432 -0.732,0 -1.14,0.432 -0.396,0.42 -0.396,1.2 z m 6.48,3.864 v -6.6 h 1.08 v 1.26 h 0.024 q 0.084,-0.636 0.54,-1.008 0.456,-0.372 1.224,-0.372 1.032,0 1.584,0.624 0.564,0.612 0.564,1.752 v 0.564 h -1.08 v -0.564 q 0,-1.44 -1.404,-1.44 -0.708,0 -1.08,0.408 -0.372,0.408 -0.372,1.176 v 4.2 z m 16.704,0.12 q -1.272,0 -2.028,-0.672 -0.756,-0.672 -0.756,-1.848 h 1.08 q 0,0.732 0.468,1.152 0.468,0.408 1.236,0.408 0.744,0 1.188,-0.432 0.444,-0.432 0.444,-1.128 0,-0.528 -0.288,-0.912 -0.276,-0.396 -0.804,-0.54 l -1.332,-0.372 q -0.828,-0.24 -1.308,-0.852 -0.468,-0.624 -0.468,-1.464 0,-0.696 0.312,-1.224 0.312,-0.528 0.876,-0.816 0.564,-0.3 1.296,-0.3 0.744,0 1.308,0.3 0.576,0.288 0.9,0.816 0.324,0.516 0.324,1.2 h -1.08 q 0,-0.6 -0.408,-0.972 -0.408,-0.384 -1.044,-0.384 -0.636,0 -1.032,0.384 -0.396,0.372 -0.396,0.972 0,0.48 0.252,0.828 0.264,0.336 0.732,0.468 l 1.368,0.384 q 0.876,0.24 1.356,0.912 0.492,0.66 0.492,1.572 0,1.152 -0.732,1.836 -0.732,0.684 -1.956,0.684 z m 5.00402,-0.12 -1.08,-6.6 h 0.936 l 0.672,4.656 q 0.036,0.264 0.072,0.588 0.036,0.312 0.048,0.516 0.024,-0.204 0.048,-0.516 0.036,-0.324 0.084,-0.588 l 0.828,-4.656 h 1.08 l 0.828,4.656 q 0.048,0.264 0.084,0.588 0.048,0.312 0.06,0.516 0.024,-0.204 0.06,-0.516 0.036,-0.324 0.072,-0.588 l 0.696,-4.656 h 0.888 l -1.128,6.6 h -1.188 l -0.756,-4.56 q -0.048,-0.336 -0.096,-0.708 -0.036,-0.384 -0.06,-0.588 -0.012,0.204 -0.06,0.588 -0.048,0.372 -0.108,0.708 l -0.792,4.56 z m 8.77198,0.12 q -1.02,0 -1.62,-0.564 -0.6,-0.576 -0.6,-1.5 0,-0.612 0.276,-1.068 0.276,-0.456 0.768,-0.708 0.492,-0.264 1.128,-0.264 h 2.04 V 301.5 q 0,-1.284 -1.404,-1.284 -0.624,0 -1.008,0.228 -0.384,0.228 -0.408,0.636 h -1.08 q 0.06,-0.78 0.72,-1.284 0.672,-0.516 1.776,-0.516 1.2,0 1.836,0.576 0.648,0.576 0.648,1.608 V 306 h -1.068 v -1.2 h -0.024 q -0.096,0.612 -0.612,0.972 -0.516,0.348 -1.368,0.348 z m 0.264,-0.912 q 0.792,0 1.26,-0.384 0.468,-0.384 0.468,-1.044 v -0.924 h -1.92 q -0.528,0 -0.864,0.324 -0.324,0.312 -0.324,0.84 0,0.552 0.36,0.876 0.372,0.312 1.02,0.312 z m 5.25601,0.792 v -6.6 h 1.08 v 1.26 h 0.024 q 0.084,-0.636 0.54,-1.008 0.456,-0.372 1.224,-0.372 1.032,0 1.584,0.624 0.564,0.612 0.564,1.752 v 0.564 h -1.08 v -0.564 q 0,-1.44 -1.404,-1.44 -0.708,0 -1.08,0.408 -0.372,0.408 -0.372,1.176 v 4.2 z m 6.57601,0 v -6.6 h 0.936 v 0.876 h 0.024 q 0.06,-0.444 0.348,-0.72 0.3,-0.276 0.756,-0.276 0.432,0 0.732,0.252 0.3,0.252 0.432,0.684 h 0.012 q 0.084,-0.432 0.372,-0.684 0.3,-0.252 0.756,-0.252 0.636,0 1.008,0.48 0.384,0.468 0.384,1.224 V 306 h -1.008 v -5.028 q 0,-0.396 -0.192,-0.624 -0.192,-0.24 -0.528,-0.24 -0.324,0 -0.516,0.228 -0.192,0.228 -0.192,0.624 V 306 h -0.888 v -5.028 q 0,-0.396 -0.192,-0.624 -0.192,-0.24 -0.516,-0.24 -0.336,0 -0.528,0.228 -0.192,0.228 -0.192,0.624 V 306 Z m 15.13203,0 -1.08,-6.6 h 0.936 l 0.672,4.656 q 0.036,0.264 0.072,0.588 0.036,0.312 0.048,0.516 0.024,-0.204 0.048,-0.516 0.036,-0.324 0.084,-0.588 l 0.828,-4.656 h 1.08 l 0.828,4.656 q 0.048,0.264 0.084,0.588 0.048,0.312 0.06,0.516 0.024,-0.204 0.06,-0.516 0.036,-0.324 0.072,-0.588 l 0.696,-4.656 h 0.888 l -1.128,6.6 h -1.188 l -0.756,-4.56 q -0.048,-0.336 -0.096,-0.708 -0.036,-0.384 -0.06,-0.588 -0.012,0.204 -0.06,0.588 -0.048,0.372 -0.108,0.708 l -0.792,4.56 z m 9.34798,0.096 q -1.188,0 -1.896,-0.696 -0.696,-0.696 -0.696,-1.944 v -1.512 q 0,-1.26 0.696,-1.944 0.696,-0.696 1.896,-0.696 1.2,0 1.896,0.696 0.696,0.684 0.696,1.944 v 1.512 q 0,1.248 -0.708,1.944 -0.696,0.696 -1.884,0.696 z m 0,-0.96 q 0.708,0 1.104,-0.396 0.408,-0.396 0.408,-1.164 v -1.752 q 0,-0.768 -0.408,-1.164 -0.396,-0.396 -1.104,-0.396 -0.696,0 -1.104,0.396 -0.408,0.396 -0.408,1.164 v 1.752 q 0,0.768 0.408,1.164 0.408,0.396 1.104,0.396 z M 392.1442,306 v -6.6 h 1.08 v 1.26 h 0.024 q 0.084,-0.636 0.54,-1.008 0.456,-0.372 1.224,-0.372 1.032,0 1.584,0.624 0.564,0.612 0.564,1.752 v 0.564 h -1.08 v -0.564 q 0,-1.44 -1.404,-1.44 -0.708,0 -1.08,0.408 -0.372,0.408 -0.372,1.176 v 4.2 z m 7.02001,0 v -8.76 h 1.08 v 4.884 h 1.26 l 1.848,-2.724 h 1.236 l -2.124,3.144 2.244,3.456 h -1.26 l -1.92,-2.94 h -1.284 V 306 Z m 17.22,0.12 q -0.744,0 -1.224,-0.36 -0.48,-0.372 -0.564,-1.02 h -0.012 V 306 h -1.08 v -8.76 h 1.08 v 1.92 l -0.024,1.5 h 0.012 q 0.096,-0.636 0.576,-1.008 0.492,-0.372 1.236,-0.372 0.996,0 1.584,0.66 0.588,0.66 0.588,1.8 v 1.932 q 0,1.128 -0.588,1.788 -0.588,0.66 -1.584,0.66 z m -0.36,-0.936 q 0.684,0 1.068,-0.36 0.384,-0.36 0.384,-1.164 v -1.92 q 0,-0.816 -0.384,-1.164 -0.384,-0.36 -1.068,-0.36 -0.66,0 -1.056,0.42 -0.384,0.42 -0.384,1.164 v 1.8 q 0,0.744 0.384,1.164 0.396,0.42 1.056,0.42 z m 7.16401,0.936 q -1.14,0 -1.824,-0.672 -0.684,-0.684 -0.684,-1.848 v -4.2 h 1.08 v 4.2 q 0,0.72 0.384,1.152 0.384,0.42 1.044,0.42 0.672,0 1.056,-0.42 0.396,-0.432 0.396,-1.152 v -4.2 h 1.08 v 4.2 q 0,1.164 -0.696,1.848 -0.696,0.672 -1.836,0.672 z m 4.63201,-0.12 v -0.984 h 2.34 v -4.632 h -2.1 V 299.4 h 3.18 v 5.616 h 2.22 V 306 Z m 2.76,-7.788 q -0.396,0 -0.624,-0.204 -0.228,-0.204 -0.228,-0.552 0,-0.36 0.228,-0.564 0.228,-0.216 0.624,-0.216 0.396,0 0.624,0.216 0.228,0.204 0.228,0.564 0,0.348 -0.228,0.552 -0.228,0.204 -0.624,0.204 z m 7.98001,7.788 q -0.876,0 -1.404,-0.504 -0.516,-0.516 -0.516,-1.356 v -5.916 h -2.28 v -0.984 h 3.36 v 6.9 q 0,0.408 0.228,0.648 0.228,0.228 0.612,0.228 h 2.04 V 306 Z m 5.85599,0.12 q -0.984,0 -1.584,-0.66 -0.588,-0.66 -0.588,-1.788 v -1.932 q 0,-1.14 0.588,-1.8 0.588,-0.66 1.584,-0.66 0.744,0 1.224,0.372 0.492,0.372 0.588,1.008 h 0.012 l -0.024,-1.5 v -1.92 h 1.08 V 306 h -1.08 v -1.26 h -0.012 q -0.084,0.648 -0.564,1.02 -0.48,0.36 -1.224,0.36 z m 0.36,-0.936 q 0.672,0 1.056,-0.42 0.384,-0.42 0.384,-1.164 v -1.8 q 0,-0.744 -0.384,-1.164 -0.384,-0.42 -1.056,-0.42 -0.684,0 -1.068,0.36 -0.384,0.348 -0.384,1.164 v 1.92 q 0,0.804 0.384,1.164 0.384,0.36 1.068,0.36 z m 14.42402,0.912 q -1.188,0 -1.896,-0.696 -0.696,-0.696 -0.696,-1.944 v -1.512 q 0,-1.26 0.696,-1.944 0.696,-0.696 1.896,-0.696 1.2,0 1.896,0.696 0.696,0.684 0.696,1.944 v 1.512 q 0,1.248 -0.708,1.944 -0.696,0.696 -1.884,0.696 z m 0,-0.96 q 0.708,0 1.104,-0.396 0.408,-0.396 0.408,-1.164 v -1.752 q 0,-0.768 -0.408,-1.164 -0.396,-0.396 -1.104,-0.396 -0.696,0 -1.104,0.396 -0.408,0.396 -0.408,1.164 v 1.752 q 0,0.768 0.408,1.164 0.408,0.396 1.104,0.396 z m 4.70398,0.864 v -6.6 h 1.08 v 1.26 h 0.012 q 0.084,-0.66 0.54,-1.02 0.456,-0.36 1.212,-0.36 0.996,0 1.584,0.612 0.588,0.612 0.588,1.668 V 306 h -1.08 v -4.248 q 0,-0.756 -0.384,-1.152 -0.372,-0.408 -1.02,-0.408 -0.672,0 -1.068,0.42 -0.384,0.42 -0.384,1.188 v 4.2 z"
     id="text10"
     style="font-size:12px;fill:#5e7c4e"
     aria-label="the substrate that vertex and other Swarm work build on" />
  <path
     d="m 1046.2509,65 -2.057,-6.05 h 1.067 l 1.32,4.07 q 0.121,0.363 0.209,0.704 0.088,0.33 0.132,0.517 0.055,-0.187 0.132,-0.517 0.077,-0.341 0.187,-0.704 l 1.32,-4.07 h 1.045 l -2.057,6.05 z m 8.849,0.11 q -1.111,0 -1.771,-0.638 -0.649,-0.649 -0.649,-1.727 v -3.52 q 0,-1.078 0.649,-1.716 0.66,-0.649 1.771,-0.649 1.111,0 1.76,0.649 0.66,0.638 0.66,1.716 v 3.52 q 0,0.715 -0.297,1.254 -0.297,0.528 -0.847,0.825 -0.539,0.286 -1.276,0.286 z m 0,-0.847 q 0.66,0 1.056,-0.418 0.407,-0.429 0.407,-1.1 v -3.52 q 0,-0.671 -0.407,-1.089 -0.396,-0.429 -1.056,-0.429 -0.66,0 -1.067,0.429 -0.396,0.418 -0.396,1.089 v 3.52 q 0,0.671 0.396,1.1 0.407,0.418 1.067,0.418 z m 0,-2.673 q -0.297,0 -0.484,-0.165 -0.176,-0.165 -0.176,-0.473 0,-0.297 0.176,-0.451 0.187,-0.165 0.484,-0.165 0.297,0 0.473,0.165 0.187,0.154 0.187,0.451 0,0.308 -0.187,0.473 -0.176,0.165 -0.473,0.165 z m 8.2,3.52 q -0.407,0 -0.66,-0.242 -0.242,-0.242 -0.242,-0.627 0,-0.407 0.242,-0.66 0.253,-0.253 0.66,-0.253 0.407,0 0.649,0.253 0.253,0.253 0.253,0.66 0,0.385 -0.253,0.627 -0.242,0.242 -0.649,0.242 z m 5.89,-0.11 v -0.902 h 2.178 v -6.27 l -2.178,1.628 v -1.133 l 1.815,-1.353 h 1.353 v 7.128 h 1.782 V 65 Z m 10.51,0.11 q -0.407,0 -0.66,-0.242 -0.242,-0.242 -0.242,-0.627 0,-0.407 0.242,-0.66 0.253,-0.253 0.66,-0.253 0.407,0 0.649,0.253 0.253,0.253 0.253,0.66 0,0.385 -0.253,0.627 -0.242,0.242 -0.649,0.242 z m 8.2,0 q -1.111,0 -1.771,-0.638 -0.649,-0.649 -0.649,-1.727 v -3.52 q 0,-1.078 0.649,-1.716 0.66,-0.649 1.771,-0.649 1.111,0 1.76,0.649 0.66,0.638 0.66,1.716 v 3.52 q 0,0.715 -0.297,1.254 -0.297,0.528 -0.847,0.825 -0.539,0.286 -1.276,0.286 z m 0,-0.847 q 0.66,0 1.056,-0.418 0.407,-0.429 0.407,-1.1 v -3.52 q 0,-0.671 -0.407,-1.089 -0.396,-0.429 -1.056,-0.429 -0.66,0 -1.067,0.429 -0.396,0.418 -0.396,1.089 v 3.52 q 0,0.671 0.396,1.1 0.407,0.418 1.067,0.418 z m 0,-2.673 q -0.297,0 -0.484,-0.165 -0.176,-0.165 -0.176,-0.473 0,-0.297 0.176,-0.451 0.187,-0.165 0.484,-0.165 0.297,0 0.473,0.165 0.187,0.154 0.187,0.451 0,0.308 -0.187,0.473 -0.176,0.165 -0.473,0.165 z m 16.4,0.55 q -0.407,0 -0.66,-0.242 -0.242,-0.242 -0.242,-0.627 0,-0.407 0.242,-0.66 0.253,-0.253 0.66,-0.253 0.407,0 0.649,0.253 0.253,0.253 0.253,0.66 0,0.385 -0.253,0.627 -0.242,0.242 -0.649,0.242 z M 1118.412,65 v -8.03 h 2.585 q 1.122,0 1.782,0.649 0.671,0.638 0.671,1.716 0,1.078 -0.671,1.727 -0.66,0.638 -1.782,0.638 h -1.595 V 65 Z m 0.99,-4.191 h 1.595 q 0.649,0 1.034,-0.396 0.396,-0.407 0.396,-1.078 0,-0.682 -0.396,-1.078 -0.385,-0.396 -1.034,-0.396 h -1.595 z m 7.221,4.191 v -8.03 h 2.475 q 0.715,0 1.254,0.297 0.539,0.286 0.836,0.803 0.297,0.517 0.297,1.21 0,0.814 -0.418,1.397 -0.418,0.583 -1.111,0.814 l 1.639,3.509 h -1.089 l -1.573,-3.41 h -1.331 V 65 Z m 0.979,-4.301 h 1.496 q 0.616,0 0.99,-0.385 0.374,-0.396 0.374,-1.034 0,-0.649 -0.374,-1.034 -0.374,-0.385 -0.99,-0.385 h -1.496 z M 1134.9,65 v -8.03 h 4.62 v 0.902 h -3.641 v 2.486 h 3.256 v 0.88 h -3.256 v 2.86 h 3.641 V 65 Z m 8.64,-3.19 v -0.88 h 3.52 v 0.88 z m 7.683,3.19 v -8.03 h 2.475 q 0.715,0 1.254,0.297 0.539,0.286 0.836,0.803 0.297,0.517 0.297,1.21 0,0.814 -0.418,1.397 -0.418,0.583 -1.111,0.814 l 1.639,3.509 h -1.089 l -1.573,-3.41 h -1.331 V 65 Z m 0.979,-4.301 h 1.496 q 0.616,0 0.99,-0.385 0.374,-0.396 0.374,-1.034 0,-0.649 -0.374,-1.034 -0.374,-0.385 -0.99,-0.385 h -1.496 z M 1159.5,65 v -8.03 h 4.62 v 0.902 h -3.641 v 2.486 h 3.256 v 0.88 h -3.256 v 2.86 h 3.641 V 65 Z m 8.53,0 v -8.03 h 0.99 v 7.128 h 3.63 V 65 Z m 7.87,0 v -8.03 h 4.62 v 0.902 h -3.641 v 2.486 h 3.256 v 0.88 h -3.256 v 2.86 h 3.641 V 65 Z m 7.65,0 2.09,-8.03 h 1.331 l 2.079,8.03 h -1.001 l -0.528,-2.134 h -2.431 L 1184.562,65 Z m 1.738,-2.97 h 2.024 l -0.616,-2.475 q -0.176,-0.704 -0.275,-1.177 -0.099,-0.473 -0.121,-0.616 -0.022,0.143 -0.121,0.616 -0.099,0.473 -0.275,1.166 z m 9.256,3.08 q -1.166,0 -1.859,-0.616 -0.693,-0.616 -0.693,-1.694 h 0.99 q 0,0.671 0.429,1.056 0.429,0.374 1.133,0.374 0.682,0 1.089,-0.396 0.407,-0.396 0.407,-1.034 0,-0.484 -0.264,-0.836 -0.253,-0.363 -0.737,-0.495 l -1.221,-0.341 q -0.759,-0.22 -1.199,-0.781 -0.429,-0.572 -0.429,-1.342 0,-0.638 0.286,-1.122 0.286,-0.484 0.803,-0.748 0.517,-0.275 1.188,-0.275 0.682,0 1.199,0.275 0.528,0.264 0.825,0.748 0.297,0.473 0.297,1.1 h -0.99 q 0,-0.55 -0.374,-0.891 -0.374,-0.352 -0.957,-0.352 -0.583,0 -0.946,0.352 -0.363,0.341 -0.363,0.891 0,0.44 0.231,0.759 0.242,0.308 0.671,0.429 l 1.254,0.352 q 0.803,0.22 1.243,0.836 0.451,0.605 0.451,1.441 0,1.056 -0.671,1.683 -0.671,0.627 -1.793,0.627 z M 1200.5,65 v -8.03 h 4.62 v 0.902 h -3.641 v 2.486 h 3.256 v 0.88 h -3.256 v 2.86 h 3.641 V 65 Z"
     id="text11"
     style="font-size:11px;letter-spacing:1.6;text-anchor:end;fill:#a8d68a"
     aria-label="v0.1.0 · PRE-RELEASE" />
  <path
     d="m 1143.95,306 2.09,-8.03 h 1.331 l 2.079,8.03 h -1.001 l -0.528,-2.134 h -2.431 l -0.528,2.134 z m 1.738,-2.97 h 2.024 l -0.616,-2.475 q -0.176,-0.704 -0.275,-1.177 -0.099,-0.473 -0.121,-0.616 -0.022,0.143 -0.121,0.616 -0.099,0.473 -0.275,1.166 z m 9.056,3.08 q -1.1,0 -1.738,-0.616 -0.638,-0.616 -0.638,-1.694 v -3.63 q 0,-1.078 0.638,-1.694 0.638,-0.616 1.738,-0.616 1.078,0 1.716,0.627 0.638,0.616 0.638,1.683 h -0.99 q 0,-0.682 -0.363,-1.045 -0.352,-0.374 -1.001,-0.374 -0.649,0 -1.023,0.363 -0.363,0.363 -0.363,1.045 v 3.641 q 0,0.682 0.363,1.056 0.374,0.374 1.023,0.374 0.649,0 1.001,-0.374 0.363,-0.374 0.363,-1.056 v -1.1 h -1.628 v -0.902 h 2.618 v 2.002 q 0,1.067 -0.638,1.694 -0.638,0.616 -1.716,0.616 z m 5.668,-0.11 v -8.03 h 2.585 q 1.122,0 1.782,0.649 0.671,0.638 0.671,1.716 0,1.078 -0.671,1.727 -0.66,0.638 -1.782,0.638 h -1.595 v 3.3 z m 0.99,-4.191 h 1.595 q 0.649,0 1.034,-0.396 0.396,-0.407 0.396,-1.078 0,-0.682 -0.396,-1.078 -0.385,-0.396 -1.034,-0.396 h -1.595 z m 7.428,4.191 v -8.03 h 0.99 v 7.128 h 3.63 V 306 Z m 8.11,-3.19 v -0.88 h 3.52 v 0.88 z m 9.639,3.3 q -1.111,0 -1.76,-0.616 -0.649,-0.627 -0.649,-1.694 h 0.99 q 0,0.66 0.385,1.045 0.385,0.385 1.045,0.385 0.66,0 1.045,-0.385 0.385,-0.385 0.385,-1.045 v -0.55 q 0,-0.66 -0.385,-1.045 -0.385,-0.385 -1.045,-0.385 h -0.869 v -0.858 l 1.969,-2.09 h -3.3 v -0.902 h 4.422 v 0.924 l -1.936,2.057 q 0.99,0.077 1.562,0.693 0.572,0.605 0.572,1.606 v 0.55 q 0,1.067 -0.66,1.694 -0.649,0.616 -1.771,0.616 z m 8.121,0 q -0.407,0 -0.66,-0.242 -0.242,-0.242 -0.242,-0.627 0,-0.407 0.242,-0.66 0.253,-0.253 0.66,-0.253 0.407,0 0.649,0.253 0.253,0.253 0.253,0.66 0,0.385 -0.253,0.627 -0.242,0.242 -0.649,0.242 z m 8,0 q -1.111,0 -1.771,-0.638 -0.649,-0.649 -0.649,-1.727 v -3.52 q 0,-1.078 0.649,-1.716 0.66,-0.649 1.771,-0.649 1.111,0 1.76,0.649 0.66,0.638 0.66,1.716 v 3.52 q 0,0.715 -0.297,1.254 -0.297,0.528 -0.847,0.825 -0.539,0.286 -1.276,0.286 z m 0,-0.847 q 0.66,0 1.056,-0.418 0.407,-0.429 0.407,-1.1 v -3.52 q 0,-0.671 -0.407,-1.089 -0.396,-0.429 -1.056,-0.429 -0.66,0 -1.067,0.429 -0.396,0.418 -0.396,1.089 v 3.52 q 0,0.671 0.396,1.1 0.407,0.418 1.067,0.418 z m 0,-2.673 q -0.297,0 -0.484,-0.165 -0.176,-0.165 -0.176,-0.473 0,-0.297 0.176,-0.451 0.187,-0.165 0.484,-0.165 0.297,0 0.473,0.165 0.187,0.154 0.187,0.451 0,0.308 -0.187,0.473 -0.176,0.165 -0.473,0.165 z"
     id="text12"
     style="font-size:11px;letter-spacing:1.4;text-anchor:end;fill:#6f7570"
     aria-label="AGPL-3.0" />
</svg>
